<?xml version="1.0" encoding="utf-8" standalone="no"?>
<!DOCTYPE svg PUBLIC "-//W3C//DTD SVG 1.1//EN"
  "http://www.w3.org/Graphics/SVG/1.1/DTD/svg11.dtd">
<!-- Created with matplotlib (http://matplotlib.org/) -->
<svg height="260pt" version="1.1" viewBox="0 0 379 260" width="379pt" xmlns="http://www.w3.org/2000/svg" xmlns:xlink="http://www.w3.org/1999/xlink">
 <defs>
  <style type="text/css">
*{stroke-linecap:butt;stroke-linejoin:round;stroke-miterlimit:100000;}
  </style>
 </defs>
 <g id="figure_1">
  <g id="patch_1">
   <path d="M 0 260.117188 
L 379.079858 260.117188 
L 379.079858 0 
L 0 0 
z
" style="fill:#ffffff;"/>
  </g>
  <g id="axes_1">
   <g id="patch_2">
    <path d="M 27.925 235.239062 
L 362.725 235.239062 
L 362.725 12.039062 
L 27.925 12.039062 
z
" style="fill:#e5e5e5;"/>
   </g>
   <g id="matplotlib.axis_1">
    <g id="xtick_1">
     <g id="line2d_1">
      <path clip-path="url(#p7bdf7a77be)" d="M 27.925 235.239062 
L 27.925 12.039062 
" style="fill:none;stroke:#ffffff;stroke-linecap:square;stroke-width:0.5;"/>
     </g>
     <g id="line2d_2">
      <defs>
       <path d="M 0 0 
L 0 4 
" id="m9285820bfa" style="stroke:#555555;stroke-width:0.5;"/>
      </defs>
      <g>
       <use style="fill:#555555;stroke:#555555;stroke-width:0.5;" x="27.925" xlink:href="#m9285820bfa" y="235.2390625"/>
      </g>
     </g>
     <g id="line2d_3">
      <defs>
       <path d="M 0 0 
L 0 -4 
" id="m355ff32e7c" style="stroke:#555555;stroke-width:0.5;"/>
      </defs>
      <g>
       <use style="fill:#555555;stroke:#555555;stroke-width:0.5;" x="27.925" xlink:href="#m355ff32e7c" y="12.0390625"/>
      </g>
     </g>
     <g id="text_1">
      <!-- 2000 -->
      <defs>
       <path d="M 31.78125 66.40625 
Q 24.171875 66.40625 20.328125 58.90625 
Q 16.5 51.421875 16.5 36.375 
Q 16.5 21.390625 20.328125 13.890625 
Q 24.171875 6.390625 31.78125 6.390625 
Q 39.453125 6.390625 43.28125 13.890625 
Q 47.125 21.390625 47.125 36.375 
Q 47.125 51.421875 43.28125 58.90625 
Q 39.453125 66.40625 31.78125 66.40625 
M 31.78125 74.21875 
Q 44.046875 74.21875 50.515625 64.515625 
Q 56.984375 54.828125 56.984375 36.375 
Q 56.984375 17.96875 50.515625 8.265625 
Q 44.046875 -1.421875 31.78125 -1.421875 
Q 19.53125 -1.421875 13.0625 8.265625 
Q 6.59375 17.96875 6.59375 36.375 
Q 6.59375 54.828125 13.0625 64.515625 
Q 19.53125 74.21875 31.78125 74.21875 
" id="BitstreamVeraSans-Roman-30"/>
       <path d="M 19.1875 8.296875 
L 53.609375 8.296875 
L 53.609375 0 
L 7.328125 0 
L 7.328125 8.296875 
Q 12.9375 14.109375 22.625 23.890625 
Q 32.328125 33.6875 34.8125 36.53125 
Q 39.546875 41.84375 41.421875 45.53125 
Q 43.3125 49.21875 43.3125 52.78125 
Q 43.3125 58.59375 39.234375 62.25 
Q 35.15625 65.921875 28.609375 65.921875 
Q 23.96875 65.921875 18.8125 64.3125 
Q 13.671875 62.703125 7.8125 59.421875 
L 7.8125 69.390625 
Q 13.765625 71.78125 18.9375 73 
Q 24.125 74.21875 28.421875 74.21875 
Q 39.75 74.21875 46.484375 68.546875 
Q 53.21875 62.890625 53.21875 53.421875 
Q 53.21875 48.921875 51.53125 44.890625 
Q 49.859375 40.875 45.40625 35.40625 
Q 44.1875 33.984375 37.640625 27.21875 
Q 31.109375 20.453125 19.1875 8.296875 
" id="BitstreamVeraSans-Roman-32"/>
      </defs>
      <g style="fill:#555555;" transform="translate(15.2 250.8375)scale(0.1 -0.1)">
       <use xlink:href="#BitstreamVeraSans-Roman-32"/>
       <use x="63.623046875" xlink:href="#BitstreamVeraSans-Roman-30"/>
       <use x="127.24609375" xlink:href="#BitstreamVeraSans-Roman-30"/>
       <use x="190.869140625" xlink:href="#BitstreamVeraSans-Roman-30"/>
      </g>
     </g>
    </g>
    <g id="xtick_2">
     <g id="line2d_4">
      <path clip-path="url(#p7bdf7a77be)" d="M 69.576659 235.239062 
L 69.576659 12.039062 
" style="fill:none;stroke:#ffffff;stroke-linecap:square;stroke-width:0.5;"/>
     </g>
     <g id="line2d_5">
      <g>
       <use style="fill:#555555;stroke:#555555;stroke-width:0.5;" x="69.5766587678" xlink:href="#m9285820bfa" y="235.2390625"/>
      </g>
     </g>
     <g id="line2d_6">
      <g>
       <use style="fill:#555555;stroke:#555555;stroke-width:0.5;" x="69.5766587678" xlink:href="#m355ff32e7c" y="12.0390625"/>
      </g>
     </g>
     <g id="text_2">
      <!-- 2002 -->
      <g style="fill:#555555;" transform="translate(56.8516587678 250.8375)scale(0.1 -0.1)">
       <use xlink:href="#BitstreamVeraSans-Roman-32"/>
       <use x="63.623046875" xlink:href="#BitstreamVeraSans-Roman-30"/>
       <use x="127.24609375" xlink:href="#BitstreamVeraSans-Roman-30"/>
       <use x="190.869140625" xlink:href="#BitstreamVeraSans-Roman-32"/>
      </g>
     </g>
    </g>
    <g id="xtick_3">
     <g id="line2d_7">
      <path clip-path="url(#p7bdf7a77be)" d="M 110.831635 235.239062 
L 110.831635 12.039062 
" style="fill:none;stroke:#ffffff;stroke-linecap:square;stroke-width:0.5;"/>
     </g>
     <g id="line2d_8">
      <g>
       <use style="fill:#555555;stroke:#555555;stroke-width:0.5;" x="110.831635071" xlink:href="#m9285820bfa" y="235.2390625"/>
      </g>
     </g>
     <g id="line2d_9">
      <g>
       <use style="fill:#555555;stroke:#555555;stroke-width:0.5;" x="110.831635071" xlink:href="#m355ff32e7c" y="12.0390625"/>
      </g>
     </g>
     <g id="text_3">
      <!-- 2004 -->
      <defs>
       <path d="M 37.796875 64.3125 
L 12.890625 25.390625 
L 37.796875 25.390625 
z
M 35.203125 72.90625 
L 47.609375 72.90625 
L 47.609375 25.390625 
L 58.015625 25.390625 
L 58.015625 17.1875 
L 47.609375 17.1875 
L 47.609375 0 
L 37.796875 0 
L 37.796875 17.1875 
L 4.890625 17.1875 
L 4.890625 26.703125 
z
" id="BitstreamVeraSans-Roman-34"/>
      </defs>
      <g style="fill:#555555;" transform="translate(98.1066350711 250.8375)scale(0.1 -0.1)">
       <use xlink:href="#BitstreamVeraSans-Roman-32"/>
       <use x="63.623046875" xlink:href="#BitstreamVeraSans-Roman-30"/>
       <use x="127.24609375" xlink:href="#BitstreamVeraSans-Roman-30"/>
       <use x="190.869140625" xlink:href="#BitstreamVeraSans-Roman-34"/>
      </g>
     </g>
    </g>
    <g id="xtick_4">
     <g id="line2d_10">
      <path clip-path="url(#p7bdf7a77be)" d="M 152.086611 235.239062 
L 152.086611 12.039062 
" style="fill:none;stroke:#ffffff;stroke-linecap:square;stroke-width:0.5;"/>
     </g>
     <g id="line2d_11">
      <g>
       <use style="fill:#555555;stroke:#555555;stroke-width:0.5;" x="152.086611374" xlink:href="#m9285820bfa" y="235.2390625"/>
      </g>
     </g>
     <g id="line2d_12">
      <g>
       <use style="fill:#555555;stroke:#555555;stroke-width:0.5;" x="152.086611374" xlink:href="#m355ff32e7c" y="12.0390625"/>
      </g>
     </g>
     <g id="text_4">
      <!-- 2006 -->
      <defs>
       <path d="M 33.015625 40.375 
Q 26.375 40.375 22.484375 35.828125 
Q 18.609375 31.296875 18.609375 23.390625 
Q 18.609375 15.53125 22.484375 10.953125 
Q 26.375 6.390625 33.015625 6.390625 
Q 39.65625 6.390625 43.53125 10.953125 
Q 47.40625 15.53125 47.40625 23.390625 
Q 47.40625 31.296875 43.53125 35.828125 
Q 39.65625 40.375 33.015625 40.375 
M 52.59375 71.296875 
L 52.59375 62.3125 
Q 48.875 64.0625 45.09375 64.984375 
Q 41.3125 65.921875 37.59375 65.921875 
Q 27.828125 65.921875 22.671875 59.328125 
Q 17.53125 52.734375 16.796875 39.40625 
Q 19.671875 43.65625 24.015625 45.921875 
Q 28.375 48.1875 33.59375 48.1875 
Q 44.578125 48.1875 50.953125 41.515625 
Q 57.328125 34.859375 57.328125 23.390625 
Q 57.328125 12.15625 50.6875 5.359375 
Q 44.046875 -1.421875 33.015625 -1.421875 
Q 20.359375 -1.421875 13.671875 8.265625 
Q 6.984375 17.96875 6.984375 36.375 
Q 6.984375 53.65625 15.1875 63.9375 
Q 23.390625 74.21875 37.203125 74.21875 
Q 40.921875 74.21875 44.703125 73.484375 
Q 48.484375 72.75 52.59375 71.296875 
" id="BitstreamVeraSans-Roman-36"/>
      </defs>
      <g style="fill:#555555;" transform="translate(139.361611374 250.8375)scale(0.1 -0.1)">
       <use xlink:href="#BitstreamVeraSans-Roman-32"/>
       <use x="63.623046875" xlink:href="#BitstreamVeraSans-Roman-30"/>
       <use x="127.24609375" xlink:href="#BitstreamVeraSans-Roman-30"/>
       <use x="190.869140625" xlink:href="#BitstreamVeraSans-Roman-36"/>
      </g>
     </g>
    </g>
    <g id="xtick_5">
     <g id="line2d_13">
      <path clip-path="url(#p7bdf7a77be)" d="M 193.73827 235.239062 
L 193.73827 12.039062 
" style="fill:none;stroke:#ffffff;stroke-linecap:square;stroke-width:0.5;"/>
     </g>
     <g id="line2d_14">
      <g>
       <use style="fill:#555555;stroke:#555555;stroke-width:0.5;" x="193.738270142" xlink:href="#m9285820bfa" y="235.2390625"/>
      </g>
     </g>
     <g id="line2d_15">
      <g>
       <use style="fill:#555555;stroke:#555555;stroke-width:0.5;" x="193.738270142" xlink:href="#m355ff32e7c" y="12.0390625"/>
      </g>
     </g>
     <g id="text_5">
      <!-- 2008 -->
      <defs>
       <path d="M 31.78125 34.625 
Q 24.75 34.625 20.71875 30.859375 
Q 16.703125 27.09375 16.703125 20.515625 
Q 16.703125 13.921875 20.71875 10.15625 
Q 24.75 6.390625 31.78125 6.390625 
Q 38.8125 6.390625 42.859375 10.171875 
Q 46.921875 13.96875 46.921875 20.515625 
Q 46.921875 27.09375 42.890625 30.859375 
Q 38.875 34.625 31.78125 34.625 
M 21.921875 38.8125 
Q 15.578125 40.375 12.03125 44.71875 
Q 8.5 49.078125 8.5 55.328125 
Q 8.5 64.0625 14.71875 69.140625 
Q 20.953125 74.21875 31.78125 74.21875 
Q 42.671875 74.21875 48.875 69.140625 
Q 55.078125 64.0625 55.078125 55.328125 
Q 55.078125 49.078125 51.53125 44.71875 
Q 48 40.375 41.703125 38.8125 
Q 48.828125 37.15625 52.796875 32.3125 
Q 56.78125 27.484375 56.78125 20.515625 
Q 56.78125 9.90625 50.3125 4.234375 
Q 43.84375 -1.421875 31.78125 -1.421875 
Q 19.734375 -1.421875 13.25 4.234375 
Q 6.78125 9.90625 6.78125 20.515625 
Q 6.78125 27.484375 10.78125 32.3125 
Q 14.796875 37.15625 21.921875 38.8125 
M 18.3125 54.390625 
Q 18.3125 48.734375 21.84375 45.5625 
Q 25.390625 42.390625 31.78125 42.390625 
Q 38.140625 42.390625 41.71875 45.5625 
Q 45.3125 48.734375 45.3125 54.390625 
Q 45.3125 60.0625 41.71875 63.234375 
Q 38.140625 66.40625 31.78125 66.40625 
Q 25.390625 66.40625 21.84375 63.234375 
Q 18.3125 60.0625 18.3125 54.390625 
" id="BitstreamVeraSans-Roman-38"/>
      </defs>
      <g style="fill:#555555;" transform="translate(181.013270142 250.8375)scale(0.1 -0.1)">
       <use xlink:href="#BitstreamVeraSans-Roman-32"/>
       <use x="63.623046875" xlink:href="#BitstreamVeraSans-Roman-30"/>
       <use x="127.24609375" xlink:href="#BitstreamVeraSans-Roman-30"/>
       <use x="190.869140625" xlink:href="#BitstreamVeraSans-Roman-38"/>
      </g>
     </g>
    </g>
    <g id="xtick_6">
     <g id="line2d_16">
      <path clip-path="url(#p7bdf7a77be)" d="M 234.993246 235.239062 
L 234.993246 12.039062 
" style="fill:none;stroke:#ffffff;stroke-linecap:square;stroke-width:0.5;"/>
     </g>
     <g id="line2d_17">
      <g>
       <use style="fill:#555555;stroke:#555555;stroke-width:0.5;" x="234.993246445" xlink:href="#m9285820bfa" y="235.2390625"/>
      </g>
     </g>
     <g id="line2d_18">
      <g>
       <use style="fill:#555555;stroke:#555555;stroke-width:0.5;" x="234.993246445" xlink:href="#m355ff32e7c" y="12.0390625"/>
      </g>
     </g>
     <g id="text_6">
      <!-- 2010 -->
      <defs>
       <path d="M 12.40625 8.296875 
L 28.515625 8.296875 
L 28.515625 63.921875 
L 10.984375 60.40625 
L 10.984375 69.390625 
L 28.421875 72.90625 
L 38.28125 72.90625 
L 38.28125 8.296875 
L 54.390625 8.296875 
L 54.390625 0 
L 12.40625 0 
z
" id="BitstreamVeraSans-Roman-31"/>
      </defs>
      <g style="fill:#555555;" transform="translate(222.268246445 250.8375)scale(0.1 -0.1)">
       <use xlink:href="#BitstreamVeraSans-Roman-32"/>
       <use x="63.623046875" xlink:href="#BitstreamVeraSans-Roman-30"/>
       <use x="127.24609375" xlink:href="#BitstreamVeraSans-Roman-31"/>
       <use x="190.869140625" xlink:href="#BitstreamVeraSans-Roman-30"/>
      </g>
     </g>
    </g>
    <g id="xtick_7">
     <g id="line2d_19">
      <path clip-path="url(#p7bdf7a77be)" d="M 276.248223 235.239062 
L 276.248223 12.039062 
" style="fill:none;stroke:#ffffff;stroke-linecap:square;stroke-width:0.5;"/>
     </g>
     <g id="line2d_20">
      <g>
       <use style="fill:#555555;stroke:#555555;stroke-width:0.5;" x="276.248222749" xlink:href="#m9285820bfa" y="235.2390625"/>
      </g>
     </g>
     <g id="line2d_21">
      <g>
       <use style="fill:#555555;stroke:#555555;stroke-width:0.5;" x="276.248222749" xlink:href="#m355ff32e7c" y="12.0390625"/>
      </g>
     </g>
     <g id="text_7">
      <!-- 2012 -->
      <g style="fill:#555555;" transform="translate(263.523222749 250.8375)scale(0.1 -0.1)">
       <use xlink:href="#BitstreamVeraSans-Roman-32"/>
       <use x="63.623046875" xlink:href="#BitstreamVeraSans-Roman-30"/>
       <use x="127.24609375" xlink:href="#BitstreamVeraSans-Roman-31"/>
       <use x="190.869140625" xlink:href="#BitstreamVeraSans-Roman-32"/>
      </g>
     </g>
    </g>
    <g id="xtick_8">
     <g id="line2d_22">
      <path clip-path="url(#p7bdf7a77be)" d="M 317.899882 235.239062 
L 317.899882 12.039062 
" style="fill:none;stroke:#ffffff;stroke-linecap:square;stroke-width:0.5;"/>
     </g>
     <g id="line2d_23">
      <g>
       <use style="fill:#555555;stroke:#555555;stroke-width:0.5;" x="317.899881517" xlink:href="#m9285820bfa" y="235.2390625"/>
      </g>
     </g>
     <g id="line2d_24">
      <g>
       <use style="fill:#555555;stroke:#555555;stroke-width:0.5;" x="317.899881517" xlink:href="#m355ff32e7c" y="12.0390625"/>
      </g>
     </g>
     <g id="text_8">
      <!-- 2014 -->
      <g style="fill:#555555;" transform="translate(305.174881517 250.8375)scale(0.1 -0.1)">
       <use xlink:href="#BitstreamVeraSans-Roman-32"/>
       <use x="63.623046875" xlink:href="#BitstreamVeraSans-Roman-30"/>
       <use x="127.24609375" xlink:href="#BitstreamVeraSans-Roman-31"/>
       <use x="190.869140625" xlink:href="#BitstreamVeraSans-Roman-34"/>
      </g>
     </g>
    </g>
    <g id="xtick_9">
     <g id="line2d_25">
      <path clip-path="url(#p7bdf7a77be)" d="M 359.154858 235.239062 
L 359.154858 12.039062 
" style="fill:none;stroke:#ffffff;stroke-linecap:square;stroke-width:0.5;"/>
     </g>
     <g id="line2d_26">
      <g>
       <use style="fill:#555555;stroke:#555555;stroke-width:0.5;" x="359.15485782" xlink:href="#m9285820bfa" y="235.2390625"/>
      </g>
     </g>
     <g id="line2d_27">
      <g>
       <use style="fill:#555555;stroke:#555555;stroke-width:0.5;" x="359.15485782" xlink:href="#m355ff32e7c" y="12.0390625"/>
      </g>
     </g>
     <g id="text_9">
      <!-- 2016 -->
      <g style="fill:#555555;" transform="translate(346.42985782 250.8375)scale(0.1 -0.1)">
       <use xlink:href="#BitstreamVeraSans-Roman-32"/>
       <use x="63.623046875" xlink:href="#BitstreamVeraSans-Roman-30"/>
       <use x="127.24609375" xlink:href="#BitstreamVeraSans-Roman-31"/>
       <use x="190.869140625" xlink:href="#BitstreamVeraSans-Roman-36"/>
      </g>
     </g>
    </g>
    <g id="xtick_10">
     <g id="line2d_28">
      <path clip-path="url(#p7bdf7a77be)" d="M 362.725 235.239062 
L 362.725 12.039062 
" style="fill:none;stroke:#ffffff;stroke-linecap:square;stroke-width:0.5;"/>
     </g>
     <g id="line2d_29">
      <g>
       <use style="fill:#555555;stroke:#555555;stroke-width:0.5;" x="362.725" xlink:href="#m9285820bfa" y="235.2390625"/>
      </g>
     </g>
     <g id="line2d_30">
      <g>
       <use style="fill:#555555;stroke:#555555;stroke-width:0.5;" x="362.725" xlink:href="#m355ff32e7c" y="12.0390625"/>
      </g>
     </g>
    </g>
    <g id="xtick_11">
     <g id="line2d_31">
      <defs>
       <path d="M 0 0 
L 0 2 
" id="mdd28c0deb1" style="stroke:#555555;stroke-width:0.5;"/>
      </defs>
      <g>
       <use style="fill:#555555;stroke:#555555;stroke-width:0.5;" x="27.925" xlink:href="#mdd28c0deb1" y="235.2390625"/>
      </g>
     </g>
     <g id="line2d_32">
      <defs>
       <path d="M 0 0 
L 0 -2 
" id="m79c70aa447" style="stroke:#555555;stroke-width:0.5;"/>
      </defs>
      <g>
       <use style="fill:#555555;stroke:#555555;stroke-width:0.5;" x="27.925" xlink:href="#m79c70aa447" y="12.0390625"/>
      </g>
     </g>
    </g>
    <g id="xtick_12">
     <g id="line2d_33">
      <g>
       <use style="fill:#555555;stroke:#555555;stroke-width:0.5;" x="48.5524881517" xlink:href="#mdd28c0deb1" y="235.2390625"/>
      </g>
     </g>
     <g id="line2d_34">
      <g>
       <use style="fill:#555555;stroke:#555555;stroke-width:0.5;" x="48.5524881517" xlink:href="#m79c70aa447" y="12.0390625"/>
      </g>
     </g>
    </g>
    <g id="xtick_13">
     <g id="line2d_35">
      <g>
       <use style="fill:#555555;stroke:#555555;stroke-width:0.5;" x="69.5766587678" xlink:href="#mdd28c0deb1" y="235.2390625"/>
      </g>
     </g>
     <g id="line2d_36">
      <g>
       <use style="fill:#555555;stroke:#555555;stroke-width:0.5;" x="69.5766587678" xlink:href="#m79c70aa447" y="12.0390625"/>
      </g>
     </g>
    </g>
    <g id="xtick_14">
     <g id="line2d_37">
      <g>
       <use style="fill:#555555;stroke:#555555;stroke-width:0.5;" x="90.2041469194" xlink:href="#mdd28c0deb1" y="235.2390625"/>
      </g>
     </g>
     <g id="line2d_38">
      <g>
       <use style="fill:#555555;stroke:#555555;stroke-width:0.5;" x="90.2041469194" xlink:href="#m79c70aa447" y="12.0390625"/>
      </g>
     </g>
    </g>
    <g id="xtick_15">
     <g id="line2d_39">
      <g>
       <use style="fill:#555555;stroke:#555555;stroke-width:0.5;" x="110.831635071" xlink:href="#mdd28c0deb1" y="235.2390625"/>
      </g>
     </g>
     <g id="line2d_40">
      <g>
       <use style="fill:#555555;stroke:#555555;stroke-width:0.5;" x="110.831635071" xlink:href="#m79c70aa447" y="12.0390625"/>
      </g>
     </g>
    </g>
    <g id="xtick_16">
     <g id="line2d_41">
      <g>
       <use style="fill:#555555;stroke:#555555;stroke-width:0.5;" x="131.459123223" xlink:href="#mdd28c0deb1" y="235.2390625"/>
      </g>
     </g>
     <g id="line2d_42">
      <g>
       <use style="fill:#555555;stroke:#555555;stroke-width:0.5;" x="131.459123223" xlink:href="#m79c70aa447" y="12.0390625"/>
      </g>
     </g>
    </g>
    <g id="xtick_17">
     <g id="line2d_43">
      <g>
       <use style="fill:#555555;stroke:#555555;stroke-width:0.5;" x="152.086611374" xlink:href="#mdd28c0deb1" y="235.2390625"/>
      </g>
     </g>
     <g id="line2d_44">
      <g>
       <use style="fill:#555555;stroke:#555555;stroke-width:0.5;" x="152.086611374" xlink:href="#m79c70aa447" y="12.0390625"/>
      </g>
     </g>
    </g>
    <g id="xtick_18">
     <g id="line2d_45">
      <g>
       <use style="fill:#555555;stroke:#555555;stroke-width:0.5;" x="172.714099526" xlink:href="#mdd28c0deb1" y="235.2390625"/>
      </g>
     </g>
     <g id="line2d_46">
      <g>
       <use style="fill:#555555;stroke:#555555;stroke-width:0.5;" x="172.714099526" xlink:href="#m79c70aa447" y="12.0390625"/>
      </g>
     </g>
    </g>
    <g id="xtick_19">
     <g id="line2d_47">
      <g>
       <use style="fill:#555555;stroke:#555555;stroke-width:0.5;" x="193.738270142" xlink:href="#mdd28c0deb1" y="235.2390625"/>
      </g>
     </g>
     <g id="line2d_48">
      <g>
       <use style="fill:#555555;stroke:#555555;stroke-width:0.5;" x="193.738270142" xlink:href="#m79c70aa447" y="12.0390625"/>
      </g>
     </g>
    </g>
    <g id="xtick_20">
     <g id="line2d_49">
      <g>
       <use style="fill:#555555;stroke:#555555;stroke-width:0.5;" x="214.365758294" xlink:href="#mdd28c0deb1" y="235.2390625"/>
      </g>
     </g>
     <g id="line2d_50">
      <g>
       <use style="fill:#555555;stroke:#555555;stroke-width:0.5;" x="214.365758294" xlink:href="#m79c70aa447" y="12.0390625"/>
      </g>
     </g>
    </g>
    <g id="xtick_21">
     <g id="line2d_51">
      <g>
       <use style="fill:#555555;stroke:#555555;stroke-width:0.5;" x="234.993246445" xlink:href="#mdd28c0deb1" y="235.2390625"/>
      </g>
     </g>
     <g id="line2d_52">
      <g>
       <use style="fill:#555555;stroke:#555555;stroke-width:0.5;" x="234.993246445" xlink:href="#m79c70aa447" y="12.0390625"/>
      </g>
     </g>
    </g>
    <g id="xtick_22">
     <g id="line2d_53">
      <g>
       <use style="fill:#555555;stroke:#555555;stroke-width:0.5;" x="255.620734597" xlink:href="#mdd28c0deb1" y="235.2390625"/>
      </g>
     </g>
     <g id="line2d_54">
      <g>
       <use style="fill:#555555;stroke:#555555;stroke-width:0.5;" x="255.620734597" xlink:href="#m79c70aa447" y="12.0390625"/>
      </g>
     </g>
    </g>
    <g id="xtick_23">
     <g id="line2d_55">
      <g>
       <use style="fill:#555555;stroke:#555555;stroke-width:0.5;" x="276.248222749" xlink:href="#mdd28c0deb1" y="235.2390625"/>
      </g>
     </g>
     <g id="line2d_56">
      <g>
       <use style="fill:#555555;stroke:#555555;stroke-width:0.5;" x="276.248222749" xlink:href="#m79c70aa447" y="12.0390625"/>
      </g>
     </g>
    </g>
    <g id="xtick_24">
     <g id="line2d_57">
      <g>
       <use style="fill:#555555;stroke:#555555;stroke-width:0.5;" x="297.272393365" xlink:href="#mdd28c0deb1" y="235.2390625"/>
      </g>
     </g>
     <g id="line2d_58">
      <g>
       <use style="fill:#555555;stroke:#555555;stroke-width:0.5;" x="297.272393365" xlink:href="#m79c70aa447" y="12.0390625"/>
      </g>
     </g>
    </g>
    <g id="xtick_25">
     <g id="line2d_59">
      <g>
       <use style="fill:#555555;stroke:#555555;stroke-width:0.5;" x="317.899881517" xlink:href="#mdd28c0deb1" y="235.2390625"/>
      </g>
     </g>
     <g id="line2d_60">
      <g>
       <use style="fill:#555555;stroke:#555555;stroke-width:0.5;" x="317.899881517" xlink:href="#m79c70aa447" y="12.0390625"/>
      </g>
     </g>
    </g>
    <g id="xtick_26">
     <g id="line2d_61">
      <g>
       <use style="fill:#555555;stroke:#555555;stroke-width:0.5;" x="338.527369668" xlink:href="#mdd28c0deb1" y="235.2390625"/>
      </g>
     </g>
     <g id="line2d_62">
      <g>
       <use style="fill:#555555;stroke:#555555;stroke-width:0.5;" x="338.527369668" xlink:href="#m79c70aa447" y="12.0390625"/>
      </g>
     </g>
    </g>
    <g id="xtick_27">
     <g id="line2d_63">
      <g>
       <use style="fill:#555555;stroke:#555555;stroke-width:0.5;" x="359.15485782" xlink:href="#mdd28c0deb1" y="235.2390625"/>
      </g>
     </g>
     <g id="line2d_64">
      <g>
       <use style="fill:#555555;stroke:#555555;stroke-width:0.5;" x="359.15485782" xlink:href="#m79c70aa447" y="12.0390625"/>
      </g>
     </g>
    </g>
   </g>
   <g id="matplotlib.axis_2">
    <g id="ytick_1">
     <g id="line2d_65">
      <path clip-path="url(#p7bdf7a77be)" d="M 27.925 235.239062 
L 362.725 235.239062 
" style="fill:none;stroke:#ffffff;stroke-linecap:square;stroke-width:0.5;"/>
     </g>
     <g id="line2d_66">
      <defs>
       <path d="M 0 0 
L -4 0 
" id="me405092c41" style="stroke:#555555;stroke-width:0.5;"/>
      </defs>
      <g>
       <use style="fill:#555555;stroke:#555555;stroke-width:0.5;" x="27.925" xlink:href="#me405092c41" y="235.2390625"/>
      </g>
     </g>
     <g id="line2d_67">
      <defs>
       <path d="M 0 0 
L 4 0 
" id="md460a9457e" style="stroke:#555555;stroke-width:0.5;"/>
      </defs>
      <g>
       <use style="fill:#555555;stroke:#555555;stroke-width:0.5;" x="362.725" xlink:href="#md460a9457e" y="235.2390625"/>
      </g>
     </g>
     <g id="text_10">
      <!-- 0 -->
      <g style="fill:#555555;" transform="translate(13.5625 237.9984375)scale(0.1 -0.1)">
       <use xlink:href="#BitstreamVeraSans-Roman-30"/>
      </g>
     </g>
    </g>
    <g id="ytick_2">
     <g id="line2d_68">
      <path clip-path="url(#p7bdf7a77be)" d="M 27.925 203.353348 
L 362.725 203.353348 
" style="fill:none;stroke:#ffffff;stroke-linecap:square;stroke-width:0.5;"/>
     </g>
     <g id="line2d_69">
      <g>
       <use style="fill:#555555;stroke:#555555;stroke-width:0.5;" x="27.925" xlink:href="#me405092c41" y="203.353348214"/>
      </g>
     </g>
     <g id="line2d_70">
      <g>
       <use style="fill:#555555;stroke:#555555;stroke-width:0.5;" x="362.725" xlink:href="#md460a9457e" y="203.353348214"/>
      </g>
     </g>
     <g id="text_11">
      <!-- 2 -->
      <g style="fill:#555555;" transform="translate(13.5625 206.112723214)scale(0.1 -0.1)">
       <use xlink:href="#BitstreamVeraSans-Roman-32"/>
      </g>
     </g>
    </g>
    <g id="ytick_3">
     <g id="line2d_71">
      <path clip-path="url(#p7bdf7a77be)" d="M 27.925 171.467634 
L 362.725 171.467634 
" style="fill:none;stroke:#ffffff;stroke-linecap:square;stroke-width:0.5;"/>
     </g>
     <g id="line2d_72">
      <g>
       <use style="fill:#555555;stroke:#555555;stroke-width:0.5;" x="27.925" xlink:href="#me405092c41" y="171.467633929"/>
      </g>
     </g>
     <g id="line2d_73">
      <g>
       <use style="fill:#555555;stroke:#555555;stroke-width:0.5;" x="362.725" xlink:href="#md460a9457e" y="171.467633929"/>
      </g>
     </g>
     <g id="text_12">
      <!-- 4 -->
      <g style="fill:#555555;" transform="translate(13.5625 174.227008929)scale(0.1 -0.1)">
       <use xlink:href="#BitstreamVeraSans-Roman-34"/>
      </g>
     </g>
    </g>
    <g id="ytick_4">
     <g id="line2d_74">
      <path clip-path="url(#p7bdf7a77be)" d="M 27.925 139.58192 
L 362.725 139.58192 
" style="fill:none;stroke:#ffffff;stroke-linecap:square;stroke-width:0.5;"/>
     </g>
     <g id="line2d_75">
      <g>
       <use style="fill:#555555;stroke:#555555;stroke-width:0.5;" x="27.925" xlink:href="#me405092c41" y="139.581919643"/>
      </g>
     </g>
     <g id="line2d_76">
      <g>
       <use style="fill:#555555;stroke:#555555;stroke-width:0.5;" x="362.725" xlink:href="#md460a9457e" y="139.581919643"/>
      </g>
     </g>
     <g id="text_13">
      <!-- 6 -->
      <g style="fill:#555555;" transform="translate(13.5625 142.341294643)scale(0.1 -0.1)">
       <use xlink:href="#BitstreamVeraSans-Roman-36"/>
      </g>
     </g>
    </g>
    <g id="ytick_5">
     <g id="line2d_77">
      <path clip-path="url(#p7bdf7a77be)" d="M 27.925 107.696205 
L 362.725 107.696205 
" style="fill:none;stroke:#ffffff;stroke-linecap:square;stroke-width:0.5;"/>
     </g>
     <g id="line2d_78">
      <g>
       <use style="fill:#555555;stroke:#555555;stroke-width:0.5;" x="27.925" xlink:href="#me405092c41" y="107.696205357"/>
      </g>
     </g>
     <g id="line2d_79">
      <g>
       <use style="fill:#555555;stroke:#555555;stroke-width:0.5;" x="362.725" xlink:href="#md460a9457e" y="107.696205357"/>
      </g>
     </g>
     <g id="text_14">
      <!-- 8 -->
      <g style="fill:#555555;" transform="translate(13.5625 110.455580357)scale(0.1 -0.1)">
       <use xlink:href="#BitstreamVeraSans-Roman-38"/>
      </g>
     </g>
    </g>
    <g id="ytick_6">
     <g id="line2d_80">
      <path clip-path="url(#p7bdf7a77be)" d="M 27.925 75.810491 
L 362.725 75.810491 
" style="fill:none;stroke:#ffffff;stroke-linecap:square;stroke-width:0.5;"/>
     </g>
     <g id="line2d_81">
      <g>
       <use style="fill:#555555;stroke:#555555;stroke-width:0.5;" x="27.925" xlink:href="#me405092c41" y="75.8104910714"/>
      </g>
     </g>
     <g id="line2d_82">
      <g>
       <use style="fill:#555555;stroke:#555555;stroke-width:0.5;" x="362.725" xlink:href="#md460a9457e" y="75.8104910714"/>
      </g>
     </g>
     <g id="text_15">
      <!-- 10 -->
      <g style="fill:#555555;" transform="translate(7.2 78.5698660714)scale(0.1 -0.1)">
       <use xlink:href="#BitstreamVeraSans-Roman-31"/>
       <use x="63.623046875" xlink:href="#BitstreamVeraSans-Roman-30"/>
      </g>
     </g>
    </g>
    <g id="ytick_7">
     <g id="line2d_83">
      <path clip-path="url(#p7bdf7a77be)" d="M 27.925 43.924777 
L 362.725 43.924777 
" style="fill:none;stroke:#ffffff;stroke-linecap:square;stroke-width:0.5;"/>
     </g>
     <g id="line2d_84">
      <g>
       <use style="fill:#555555;stroke:#555555;stroke-width:0.5;" x="27.925" xlink:href="#me405092c41" y="43.9247767857"/>
      </g>
     </g>
     <g id="line2d_85">
      <g>
       <use style="fill:#555555;stroke:#555555;stroke-width:0.5;" x="362.725" xlink:href="#md460a9457e" y="43.9247767857"/>
      </g>
     </g>
     <g id="text_16">
      <!-- 12 -->
      <g style="fill:#555555;" transform="translate(7.2 46.6841517857)scale(0.1 -0.1)">
       <use xlink:href="#BitstreamVeraSans-Roman-31"/>
       <use x="63.623046875" xlink:href="#BitstreamVeraSans-Roman-32"/>
      </g>
     </g>
    </g>
    <g id="ytick_8">
     <g id="line2d_86">
      <path clip-path="url(#p7bdf7a77be)" d="M 27.925 12.039062 
L 362.725 12.039062 
" style="fill:none;stroke:#ffffff;stroke-linecap:square;stroke-width:0.5;"/>
     </g>
     <g id="line2d_87">
      <g>
       <use style="fill:#555555;stroke:#555555;stroke-width:0.5;" x="27.925" xlink:href="#me405092c41" y="12.0390625"/>
      </g>
     </g>
     <g id="line2d_88">
      <g>
       <use style="fill:#555555;stroke:#555555;stroke-width:0.5;" x="362.725" xlink:href="#md460a9457e" y="12.0390625"/>
      </g>
     </g>
     <g id="text_17">
      <!-- 14 -->
      <g style="fill:#555555;" transform="translate(7.2 14.7984375)scale(0.1 -0.1)">
       <use xlink:href="#BitstreamVeraSans-Roman-31"/>
       <use x="63.623046875" xlink:href="#BitstreamVeraSans-Roman-34"/>
      </g>
     </g>
    </g>
   </g>
   <g id="line2d_89">
    <path clip-path="url(#p7bdf7a77be)" d="M 27.925 219.045931 
L 29.51173 218.418223 
L 31.09846 218.132351 
L 32.68519 217.371141 
L 34.271919 216.954118 
L 35.858649 215.664092 
L 37.445379 215.644895 
L 40.618839 214.961599 
L 42.205569 215.360421 
L 43.792299 215.304386 
L 45.379028 215.132786 
L 46.965758 214.726544 
L 50.139218 214.698278 
L 51.725948 214.83412 
L 53.312678 214.326491 
L 54.899408 214.517257 
L 56.486137 214.212243 
L 58.072867 214.655453 
L 59.659597 214.892935 
L 61.246327 214.139524 
L 62.833057 213.699489 
L 64.419787 214.174021 
L 66.006517 214.435544 
L 67.593246 213.761054 
L 69.179976 213.231721 
L 70.766706 213.294864 
L 72.353436 212.947582 
L 73.940166 212.229805 
L 75.526896 212.379703 
L 77.113626 213.56492 
L 78.700355 213.86205 
L 80.287085 214.416726 
L 81.873815 214.663103 
L 83.460545 215.246719 
L 85.047275 215.246719 
L 86.634005 214.86106 
L 88.220735 214.89552 
L 89.807464 215.798589 
L 91.394194 215.61749 
L 92.980924 215.808043 
L 94.567654 215.693433 
L 96.154384 216.230694 
L 100.914573 215.300327 
L 104.088033 215.882293 
L 105.674763 215.71261 
L 107.261493 215.813672 
L 108.848223 215.409957 
L 112.021682 215.366104 
L 113.608412 215.547853 
L 115.195142 215.322937 
L 116.781872 215.870503 
L 118.368602 216.121717 
L 119.955332 217.090495 
L 121.542062 217.683844 
L 123.128791 217.392594 
L 124.715521 217.367173 
L 126.302251 217.75377 
L 127.888981 217.81728 
L 129.475711 218.391856 
L 131.062441 218.329465 
L 132.649171 217.784724 
L 134.2359 217.570612 
L 135.82263 218.426337 
L 138.99609 219.517613 
L 140.58282 218.422485 
L 142.16955 218.994075 
L 143.75628 218.257692 
L 145.343009 217.649748 
L 146.929739 217.642559 
L 148.516469 218.386129 
L 150.103199 218.5205 
L 151.689929 218.152163 
L 153.276659 217.434864 
L 154.863389 217.602217 
L 156.450118 217.20031 
L 158.036848 216.932495 
L 159.623578 214.883716 
L 161.210308 216.46788 
L 162.797038 216.053747 
L 164.383768 216.834358 
L 165.970498 216.754079 
L 167.557227 216.431534 
L 169.143957 215.890071 
L 170.730687 215.611834 
L 172.317417 214.735037 
L 173.904147 213.720808 
L 175.490877 212.251257 
L 177.077607 211.784538 
L 180.251066 209.148306 
L 181.837796 206.839515 
L 183.424526 206.501757 
L 185.011256 205.281469 
L 186.597986 204.290587 
L 189.771445 203.46341 
L 191.358175 205.340605 
L 192.944905 203.141894 
L 194.531635 206.552038 
L 196.118365 206.748808 
L 199.291825 211.199984 
L 202.465284 212.928336 
L 204.052014 212.470933 
L 205.638744 213.738256 
L 207.225474 214.523789 
L 208.812204 213.991886 
L 210.398934 216.687462 
L 211.985664 217.906762 
L 213.572393 217.701817 
L 215.159123 216.902872 
L 216.745853 215.54451 
L 218.332583 215.223713 
L 219.919313 214.446008 
L 221.506043 214.283277 
L 223.092773 213.920763 
L 224.679502 212.85055 
L 226.266232 212.673983 
L 227.852962 215.132894 
L 229.439692 216.513549 
L 232.613152 215.703585 
L 234.199882 216.767891 
L 235.786611 216.630179 
L 237.373341 216.105288 
L 238.960071 216.582637 
L 240.546801 216.75309 
L 242.133531 217.856167 
L 243.720261 218.398835 
L 245.306991 219.538196 
L 246.89372 219.029827 
L 248.48045 218.953283 
L 250.06718 218.707078 
L 251.65391 218.1721 
L 253.24064 218.910244 
L 256.4141 219.78982 
L 258.000829 219.235238 
L 259.587559 219.549684 
L 261.174289 219.256897 
L 262.761019 219.472352 
L 264.347749 219.347927 
L 265.934479 219.034987 
L 267.521209 218.945631 
L 269.107938 218.552757 
L 270.694668 218.857269 
L 272.281398 219.328043 
L 273.868128 220.042867 
L 275.454858 220.529479 
L 277.041588 220.659228 
L 278.628318 220.530147 
L 280.215047 220.592036 
L 281.801777 220.443531 
L 283.388507 220.099179 
L 284.975237 220.438722 
L 286.561967 220.424773 
L 288.148697 220.63625 
L 291.322156 221.303894 
L 292.908886 221.077796 
L 294.495616 221.502872 
L 296.082346 220.997196 
L 297.669076 220.834009 
L 299.255806 220.810949 
L 300.842536 220.574157 
L 302.429265 220.723425 
L 304.015995 220.369172 
L 305.602725 220.328561 
L 307.189455 220.085769 
L 308.776185 220.301963 
L 310.362915 220.224491 
L 313.536374 220.353819 
L 315.123104 219.732523 
L 316.709834 220.268837 
L 318.296564 220.534249 
L 319.883294 220.14992 
L 321.470024 220.704253 
L 324.643483 220.346782 
L 326.230213 220.361589 
L 327.816943 220.185259 
L 329.403673 219.278752 
L 330.990403 219.350962 
L 332.577133 219.685786 
L 335.750592 219.745153 
L 337.337322 220.090971 
L 338.924052 220.639815 
L 342.097512 220.942274 
L 343.684242 220.649521 
L 345.270972 220.801869 
L 346.857701 220.759629 
L 348.444431 222.130808 
L 350.031161 223.005752 
L 351.617891 225.407027 
L 353.204621 225.277315 
L 354.791351 224.977393 
L 357.96481 225.138234 
L 359.55154 225.994071 
L 361.13827 225.737971 
L 362.725 224.996919 
L 362.725 224.996919 
" style="fill:none;stroke:#e24a33;stroke-linecap:square;"/>
   </g>
   <g id="line2d_90">
    <path clip-path="url(#p7bdf7a77be)" d="M 27.925 219.629113 
L 29.51173 220.141053 
L 31.09846 219.262253 
L 32.68519 218.005351 
L 34.271919 218.275712 
L 35.858649 216.998132 
L 37.445379 216.119751 
L 40.618839 216.360678 
L 42.205569 216.515838 
L 45.379028 215.785377 
L 46.965758 215.817442 
L 50.139218 214.159499 
L 51.725948 214.263939 
L 53.312678 214.946156 
L 54.899408 215.392628 
L 59.659597 214.940952 
L 61.246327 215.100215 
L 62.833057 214.817392 
L 64.419787 213.797901 
L 66.006517 213.336603 
L 67.593246 213.147386 
L 69.179976 213.467223 
L 70.766706 212.492501 
L 73.940166 212.411502 
L 75.526896 212.832567 
L 77.113626 212.381146 
L 78.700355 211.343021 
L 80.287085 211.261819 
L 83.460545 211.370759 
L 85.047275 211.153093 
L 86.634005 211.203143 
L 88.220735 211.414883 
L 89.807464 210.752591 
L 91.394194 210.714178 
L 92.980924 210.400303 
L 94.567654 209.30538 
L 96.154384 208.684342 
L 99.327844 208.555546 
L 104.088033 208.65869 
L 105.674763 207.020524 
L 107.261493 205.72947 
L 108.848223 205.892105 
L 110.434953 205.160893 
L 112.021682 204.244971 
L 115.195142 202.741402 
L 116.781872 202.487145 
L 118.368602 202.101247 
L 119.955332 201.099754 
L 121.542062 201.132292 
L 123.128791 199.896765 
L 126.302251 200.767906 
L 127.888981 200.468846 
L 129.475711 199.885338 
L 131.062441 199.461655 
L 132.649171 199.189958 
L 134.2359 199.707105 
L 135.82263 200.035646 
L 137.40936 199.07452 
L 138.99609 196.922864 
L 140.58282 197.868909 
L 142.16955 197.593761 
L 143.75628 196.506849 
L 145.343009 197.561858 
L 146.929739 197.976805 
L 148.516469 196.333289 
L 150.103199 195.687123 
L 151.689929 195.382062 
L 153.276659 194.182089 
L 154.863389 193.819199 
L 156.450118 194.648544 
L 158.036848 198.012689 
L 159.623578 194.340752 
L 161.210308 193.949305 
L 162.797038 193.101424 
L 164.383768 192.444493 
L 165.970498 193.295362 
L 169.143957 190.786611 
L 170.730687 191.954975 
L 172.317417 191.262587 
L 173.904147 185.998512 
L 175.490877 181.691117 
L 177.077607 175.705274 
L 178.664336 168.083798 
L 180.251066 170.184253 
L 181.837796 168.954569 
L 183.424526 169.028407 
L 185.011256 164.080869 
L 186.597986 161.736025 
L 188.184716 164.723236 
L 189.771445 159.476137 
L 191.358175 158.787371 
L 192.944905 159.590806 
L 194.531635 158.546611 
L 196.118365 157.740272 
L 197.705095 154.14048 
L 199.291825 154.830079 
L 200.878555 151.957687 
L 202.465284 156.442474 
L 204.052014 153.194329 
L 205.638744 147.436157 
L 207.225474 143.601613 
L 208.812204 143.312741 
L 210.398934 138.83159 
L 211.985664 140.771182 
L 213.572393 139.511304 
L 215.159123 133.820212 
L 216.745853 133.299275 
L 218.332583 131.822897 
L 219.919313 127.181595 
L 221.506043 125.965325 
L 223.092773 122.194239 
L 224.679502 115.046101 
L 226.266232 116.753551 
L 227.852962 117.098564 
L 229.439692 117.714131 
L 232.613152 115.205792 
L 234.199882 118.079583 
L 235.786611 116.127872 
L 237.373341 116.905117 
L 238.960071 122.161502 
L 240.546801 125.635666 
L 242.133531 129.875376 
L 243.720261 119.311454 
L 245.306991 121.46928 
L 248.48045 138.149478 
L 250.06718 133.767252 
L 251.65391 141.170785 
L 253.24064 141.914208 
L 254.82737 134.224571 
L 256.4141 134.065185 
L 258.000829 134.615545 
L 259.587559 130.044729 
L 261.174289 125.936186 
L 262.761019 126.446333 
L 264.347749 128.111407 
L 265.934479 132.6804 
L 267.521209 135.275726 
L 269.107938 131.75272 
L 270.694668 125.00277 
L 272.281398 129.69628 
L 273.868128 124.988477 
L 275.454858 115.725805 
L 277.041588 120.649923 
L 278.628318 122.903898 
L 280.215047 120.732162 
L 281.801777 119.358832 
L 284.975237 121.817836 
L 286.561967 120.727209 
L 288.148697 123.561712 
L 289.735427 124.983153 
L 291.322156 122.476244 
L 292.908886 117.026421 
L 294.495616 108.221518 
L 296.082346 113.042691 
L 297.669076 110.028931 
L 299.255806 115.578684 
L 300.842536 114.374469 
L 302.429265 115.386921 
L 304.015995 118.973185 
L 305.602725 124.737577 
L 307.189455 131.220881 
L 308.776185 127.110482 
L 310.362915 121.732883 
L 311.949645 125.424906 
L 313.536374 119.063755 
L 315.123104 117.910368 
L 316.709834 123.430135 
L 318.296564 130.477119 
L 319.883294 128.441594 
L 321.470024 120.413702 
L 323.056754 119.075269 
L 324.643483 119.674004 
L 326.230213 123.058014 
L 327.816943 116.005324 
L 329.403673 120.681208 
L 330.990403 118.427351 
L 332.577133 115.836752 
L 334.163863 105.695842 
L 337.337322 71.614916 
L 338.924052 83.711789 
L 340.510782 84.813463 
L 342.097512 83.776988 
L 343.684242 69.028131 
L 345.270972 90.340251 
L 346.857701 70.729602 
L 348.444431 73.512988 
L 350.031161 68.951602 
L 351.617891 59.116674 
L 353.204621 61.060316 
L 354.791351 64.893303 
L 356.378081 59.763847 
L 357.96481 47.271307 
L 359.55154 49.813493 
L 361.13827 33.962306 
L 362.725 41.615472 
L 362.725 41.615472 
" style="fill:none;stroke:#348abd;stroke-linecap:square;"/>
   </g>
   <g id="patch_3">
    <path d="M 27.925 235.239062 
L 362.725 235.239062 
" style="fill:none;stroke:#ffffff;stroke-linecap:square;stroke-linejoin:miter;"/>
   </g>
   <g id="patch_4">
    <path d="M 362.725 235.239062 
L 362.725 12.039062 
" style="fill:none;stroke:#ffffff;stroke-linecap:square;stroke-linejoin:miter;"/>
   </g>
   <g id="patch_5">
    <path d="M 27.925 235.239062 
L 27.925 12.039062 
" style="fill:none;stroke:#ffffff;stroke-linecap:square;stroke-linejoin:miter;"/>
   </g>
   <g id="patch_6">
    <path d="M 27.925 12.039062 
L 362.725 12.039062 
" style="fill:none;stroke:#ffffff;stroke-linecap:square;stroke-linejoin:miter;"/>
   </g>
   <g id="legend_1">
    <g id="patch_7">
     <path d="M 33.925 57.534063 
L 218.97625 57.534063 
L 218.97625 18.039062 
L 33.925 18.039062 
z
" style="fill:#e5e5e5;stroke:#ffffff;stroke-linejoin:miter;stroke-width:0.5;"/>
    </g>
    <g id="line2d_91">
     <path d="M 42.325 27.757188 
L 59.125 27.757188 
" style="fill:none;stroke:#e24a33;stroke-linecap:square;"/>
    </g>
    <g id="line2d_92"/>
    <g id="text_18">
     <!-- index_returns_cumprod -->
     <defs>
      <path d="M 48.78125 52.59375 
L 48.78125 44.1875 
Q 44.96875 46.296875 41.140625 47.34375 
Q 37.3125 48.390625 33.40625 48.390625 
Q 24.65625 48.390625 19.8125 42.84375 
Q 14.984375 37.3125 14.984375 27.296875 
Q 14.984375 17.28125 19.8125 11.734375 
Q 24.65625 6.203125 33.40625 6.203125 
Q 37.3125 6.203125 41.140625 7.25 
Q 44.96875 8.296875 48.78125 10.40625 
L 48.78125 2.09375 
Q 45.015625 0.34375 40.984375 -0.53125 
Q 36.96875 -1.421875 32.421875 -1.421875 
Q 20.0625 -1.421875 12.78125 6.34375 
Q 5.515625 14.109375 5.515625 27.296875 
Q 5.515625 40.671875 12.859375 48.328125 
Q 20.21875 56 33.015625 56 
Q 37.15625 56 41.109375 55.140625 
Q 45.0625 54.296875 48.78125 52.59375 
" id="BitstreamVeraSans-Roman-63"/>
      <path d="M 18.3125 70.21875 
L 18.3125 54.6875 
L 36.8125 54.6875 
L 36.8125 47.703125 
L 18.3125 47.703125 
L 18.3125 18.015625 
Q 18.3125 11.328125 20.140625 9.421875 
Q 21.96875 7.515625 27.59375 7.515625 
L 36.8125 7.515625 
L 36.8125 0 
L 27.59375 0 
Q 17.1875 0 13.234375 3.875 
Q 9.28125 7.765625 9.28125 18.015625 
L 9.28125 47.703125 
L 2.6875 47.703125 
L 2.6875 54.6875 
L 9.28125 54.6875 
L 9.28125 70.21875 
z
" id="BitstreamVeraSans-Roman-74"/>
      <path d="M 18.109375 8.203125 
L 18.109375 -20.796875 
L 9.078125 -20.796875 
L 9.078125 54.6875 
L 18.109375 54.6875 
L 18.109375 46.390625 
Q 20.953125 51.265625 25.265625 53.625 
Q 29.59375 56 35.59375 56 
Q 45.5625 56 51.78125 48.09375 
Q 58.015625 40.1875 58.015625 27.296875 
Q 58.015625 14.40625 51.78125 6.484375 
Q 45.5625 -1.421875 35.59375 -1.421875 
Q 29.59375 -1.421875 25.265625 0.953125 
Q 20.953125 3.328125 18.109375 8.203125 
M 48.6875 27.296875 
Q 48.6875 37.203125 44.609375 42.84375 
Q 40.53125 48.484375 33.40625 48.484375 
Q 26.265625 48.484375 22.1875 42.84375 
Q 18.109375 37.203125 18.109375 27.296875 
Q 18.109375 17.390625 22.1875 11.75 
Q 26.265625 6.109375 33.40625 6.109375 
Q 40.53125 6.109375 44.609375 11.75 
Q 48.6875 17.390625 48.6875 27.296875 
" id="BitstreamVeraSans-Roman-70"/>
      <path d="M 52 44.1875 
Q 55.375 50.25 60.0625 53.125 
Q 64.75 56 71.09375 56 
Q 79.640625 56 84.28125 50.015625 
Q 88.921875 44.046875 88.921875 33.015625 
L 88.921875 0 
L 79.890625 0 
L 79.890625 32.71875 
Q 79.890625 40.578125 77.09375 44.375 
Q 74.3125 48.1875 68.609375 48.1875 
Q 61.625 48.1875 57.5625 43.546875 
Q 53.515625 38.921875 53.515625 30.90625 
L 53.515625 0 
L 44.484375 0 
L 44.484375 32.71875 
Q 44.484375 40.625 41.703125 44.40625 
Q 38.921875 48.1875 33.109375 48.1875 
Q 26.21875 48.1875 22.15625 43.53125 
Q 18.109375 38.875 18.109375 30.90625 
L 18.109375 0 
L 9.078125 0 
L 9.078125 54.6875 
L 18.109375 54.6875 
L 18.109375 46.1875 
Q 21.1875 51.21875 25.484375 53.609375 
Q 29.78125 56 35.6875 56 
Q 41.65625 56 45.828125 52.96875 
Q 50 49.953125 52 44.1875 
" id="BitstreamVeraSans-Roman-6d"/>
      <path d="M 54.890625 33.015625 
L 54.890625 0 
L 45.90625 0 
L 45.90625 32.71875 
Q 45.90625 40.484375 42.875 44.328125 
Q 39.84375 48.1875 33.796875 48.1875 
Q 26.515625 48.1875 22.3125 43.546875 
Q 18.109375 38.921875 18.109375 30.90625 
L 18.109375 0 
L 9.078125 0 
L 9.078125 54.6875 
L 18.109375 54.6875 
L 18.109375 46.1875 
Q 21.34375 51.125 25.703125 53.5625 
Q 30.078125 56 35.796875 56 
Q 45.21875 56 50.046875 50.171875 
Q 54.890625 44.34375 54.890625 33.015625 
" id="BitstreamVeraSans-Roman-6e"/>
      <path d="M 41.109375 46.296875 
Q 39.59375 47.171875 37.8125 47.578125 
Q 36.03125 48 33.890625 48 
Q 26.265625 48 22.1875 43.046875 
Q 18.109375 38.09375 18.109375 28.8125 
L 18.109375 0 
L 9.078125 0 
L 9.078125 54.6875 
L 18.109375 54.6875 
L 18.109375 46.1875 
Q 20.953125 51.171875 25.484375 53.578125 
Q 30.03125 56 36.53125 56 
Q 37.453125 56 38.578125 55.875 
Q 39.703125 55.765625 41.0625 55.515625 
z
" id="BitstreamVeraSans-Roman-72"/>
      <path d="M 56.203125 29.59375 
L 56.203125 25.203125 
L 14.890625 25.203125 
Q 15.484375 15.921875 20.484375 11.0625 
Q 25.484375 6.203125 34.421875 6.203125 
Q 39.59375 6.203125 44.453125 7.46875 
Q 49.3125 8.734375 54.109375 11.28125 
L 54.109375 2.78125 
Q 49.265625 0.734375 44.1875 -0.34375 
Q 39.109375 -1.421875 33.890625 -1.421875 
Q 20.796875 -1.421875 13.15625 6.1875 
Q 5.515625 13.8125 5.515625 26.8125 
Q 5.515625 40.234375 12.765625 48.109375 
Q 20.015625 56 32.328125 56 
Q 43.359375 56 49.78125 48.890625 
Q 56.203125 41.796875 56.203125 29.59375 
M 47.21875 32.234375 
Q 47.125 39.59375 43.09375 43.984375 
Q 39.0625 48.390625 32.421875 48.390625 
Q 24.90625 48.390625 20.390625 44.140625 
Q 15.875 39.890625 15.1875 32.171875 
z
" id="BitstreamVeraSans-Roman-65"/>
      <path d="M 8.5 21.578125 
L 8.5 54.6875 
L 17.484375 54.6875 
L 17.484375 21.921875 
Q 17.484375 14.15625 20.5 10.265625 
Q 23.53125 6.390625 29.59375 6.390625 
Q 36.859375 6.390625 41.078125 11.03125 
Q 45.3125 15.671875 45.3125 23.6875 
L 45.3125 54.6875 
L 54.296875 54.6875 
L 54.296875 0 
L 45.3125 0 
L 45.3125 8.40625 
Q 42.046875 3.421875 37.71875 1 
Q 33.40625 -1.421875 27.6875 -1.421875 
Q 18.265625 -1.421875 13.375 4.4375 
Q 8.5 10.296875 8.5 21.578125 
" id="BitstreamVeraSans-Roman-75"/>
      <path d="M 54.890625 54.6875 
L 35.109375 28.078125 
L 55.90625 0 
L 45.3125 0 
L 29.390625 21.484375 
L 13.484375 0 
L 2.875 0 
L 24.125 28.609375 
L 4.6875 54.6875 
L 15.28125 54.6875 
L 29.78125 35.203125 
L 44.28125 54.6875 
z
" id="BitstreamVeraSans-Roman-78"/>
      <path d="M 44.28125 53.078125 
L 44.28125 44.578125 
Q 40.484375 46.53125 36.375 47.5 
Q 32.28125 48.484375 27.875 48.484375 
Q 21.1875 48.484375 17.84375 46.4375 
Q 14.5 44.390625 14.5 40.28125 
Q 14.5 37.15625 16.890625 35.375 
Q 19.28125 33.59375 26.515625 31.984375 
L 29.59375 31.296875 
Q 39.15625 29.25 43.1875 25.515625 
Q 47.21875 21.78125 47.21875 15.09375 
Q 47.21875 7.46875 41.1875 3.015625 
Q 35.15625 -1.421875 24.609375 -1.421875 
Q 20.21875 -1.421875 15.453125 -0.5625 
Q 10.6875 0.296875 5.421875 2 
L 5.421875 11.28125 
Q 10.40625 8.6875 15.234375 7.390625 
Q 20.0625 6.109375 24.8125 6.109375 
Q 31.15625 6.109375 34.5625 8.28125 
Q 37.984375 10.453125 37.984375 14.40625 
Q 37.984375 18.0625 35.515625 20.015625 
Q 33.0625 21.96875 24.703125 23.78125 
L 21.578125 24.515625 
Q 13.234375 26.265625 9.515625 29.90625 
Q 5.8125 33.546875 5.8125 39.890625 
Q 5.8125 47.609375 11.28125 51.796875 
Q 16.75 56 26.8125 56 
Q 31.78125 56 36.171875 55.265625 
Q 40.578125 54.546875 44.28125 53.078125 
" id="BitstreamVeraSans-Roman-73"/>
      <path d="M 30.609375 48.390625 
Q 23.390625 48.390625 19.1875 42.75 
Q 14.984375 37.109375 14.984375 27.296875 
Q 14.984375 17.484375 19.15625 11.84375 
Q 23.34375 6.203125 30.609375 6.203125 
Q 37.796875 6.203125 41.984375 11.859375 
Q 46.1875 17.53125 46.1875 27.296875 
Q 46.1875 37.015625 41.984375 42.703125 
Q 37.796875 48.390625 30.609375 48.390625 
M 30.609375 56 
Q 42.328125 56 49.015625 48.375 
Q 55.71875 40.765625 55.71875 27.296875 
Q 55.71875 13.875 49.015625 6.21875 
Q 42.328125 -1.421875 30.609375 -1.421875 
Q 18.84375 -1.421875 12.171875 6.21875 
Q 5.515625 13.875 5.515625 27.296875 
Q 5.515625 40.765625 12.171875 48.375 
Q 18.84375 56 30.609375 56 
" id="BitstreamVeraSans-Roman-6f"/>
      <path d="M 9.421875 54.6875 
L 18.40625 54.6875 
L 18.40625 0 
L 9.421875 0 
z
M 9.421875 75.984375 
L 18.40625 75.984375 
L 18.40625 64.59375 
L 9.421875 64.59375 
z
" id="BitstreamVeraSans-Roman-69"/>
      <path d="M 50.984375 -16.609375 
L 50.984375 -23.578125 
L -0.984375 -23.578125 
L -0.984375 -16.609375 
z
" id="BitstreamVeraSans-Roman-5f"/>
      <path d="M 45.40625 46.390625 
L 45.40625 75.984375 
L 54.390625 75.984375 
L 54.390625 0 
L 45.40625 0 
L 45.40625 8.203125 
Q 42.578125 3.328125 38.25 0.953125 
Q 33.9375 -1.421875 27.875 -1.421875 
Q 17.96875 -1.421875 11.734375 6.484375 
Q 5.515625 14.40625 5.515625 27.296875 
Q 5.515625 40.1875 11.734375 48.09375 
Q 17.96875 56 27.875 56 
Q 33.9375 56 38.25 53.625 
Q 42.578125 51.265625 45.40625 46.390625 
M 14.796875 27.296875 
Q 14.796875 17.390625 18.875 11.75 
Q 22.953125 6.109375 30.078125 6.109375 
Q 37.203125 6.109375 41.296875 11.75 
Q 45.40625 17.390625 45.40625 27.296875 
Q 45.40625 37.203125 41.296875 42.84375 
Q 37.203125 48.484375 30.078125 48.484375 
Q 22.953125 48.484375 18.875 42.84375 
Q 14.796875 37.203125 14.796875 27.296875 
" id="BitstreamVeraSans-Roman-64"/>
     </defs>
     <g transform="translate(72.325 31.9571875)scale(0.12 -0.12)">
      <use xlink:href="#BitstreamVeraSans-Roman-69"/>
      <use x="27.783203125" xlink:href="#BitstreamVeraSans-Roman-6e"/>
      <use x="91.162109375" xlink:href="#BitstreamVeraSans-Roman-64"/>
      <use x="154.638671875" xlink:href="#BitstreamVeraSans-Roman-65"/>
      <use x="216.146484375" xlink:href="#BitstreamVeraSans-Roman-78"/>
      <use x="275.326171875" xlink:href="#BitstreamVeraSans-Roman-5f"/>
      <use x="325.326171875" xlink:href="#BitstreamVeraSans-Roman-72"/>
      <use x="366.408203125" xlink:href="#BitstreamVeraSans-Roman-65"/>
      <use x="427.931640625" xlink:href="#BitstreamVeraSans-Roman-74"/>
      <use x="467.140625" xlink:href="#BitstreamVeraSans-Roman-75"/>
      <use x="530.51953125" xlink:href="#BitstreamVeraSans-Roman-72"/>
      <use x="571.6171875" xlink:href="#BitstreamVeraSans-Roman-6e"/>
      <use x="634.99609375" xlink:href="#BitstreamVeraSans-Roman-73"/>
      <use x="687.095703125" xlink:href="#BitstreamVeraSans-Roman-5f"/>
      <use x="737.095703125" xlink:href="#BitstreamVeraSans-Roman-63"/>
      <use x="792.076171875" xlink:href="#BitstreamVeraSans-Roman-75"/>
      <use x="855.455078125" xlink:href="#BitstreamVeraSans-Roman-6d"/>
      <use x="952.8671875" xlink:href="#BitstreamVeraSans-Roman-70"/>
      <use x="1016.34375" xlink:href="#BitstreamVeraSans-Roman-72"/>
      <use x="1057.42578125" xlink:href="#BitstreamVeraSans-Roman-6f"/>
      <use x="1118.607421875" xlink:href="#BitstreamVeraSans-Roman-64"/>
     </g>
    </g>
    <g id="line2d_93">
     <path d="M 42.325 45.704687 
L 59.125 45.704687 
" style="fill:none;stroke:#348abd;stroke-linecap:square;"/>
    </g>
    <g id="line2d_94"/>
    <g id="text_19">
     <!-- returns_cumprod -->
     <g transform="translate(72.325 49.9046875)scale(0.12 -0.12)">
      <use xlink:href="#BitstreamVeraSans-Roman-72"/>
      <use x="41.08203125" xlink:href="#BitstreamVeraSans-Roman-65"/>
      <use x="102.60546875" xlink:href="#BitstreamVeraSans-Roman-74"/>
      <use x="141.814453125" xlink:href="#BitstreamVeraSans-Roman-75"/>
      <use x="205.193359375" xlink:href="#BitstreamVeraSans-Roman-72"/>
      <use x="246.291015625" xlink:href="#BitstreamVeraSans-Roman-6e"/>
      <use x="309.669921875" xlink:href="#BitstreamVeraSans-Roman-73"/>
      <use x="361.76953125" xlink:href="#BitstreamVeraSans-Roman-5f"/>
      <use x="411.76953125" xlink:href="#BitstreamVeraSans-Roman-63"/>
      <use x="466.75" xlink:href="#BitstreamVeraSans-Roman-75"/>
      <use x="530.12890625" xlink:href="#BitstreamVeraSans-Roman-6d"/>
      <use x="627.541015625" xlink:href="#BitstreamVeraSans-Roman-70"/>
      <use x="691.017578125" xlink:href="#BitstreamVeraSans-Roman-72"/>
      <use x="732.099609375" xlink:href="#BitstreamVeraSans-Roman-6f"/>
      <use x="793.28125" xlink:href="#BitstreamVeraSans-Roman-64"/>
     </g>
    </g>
   </g>
  </g>
 </g>
 <defs>
  <clipPath id="p7bdf7a77be">
   <rect height="223.2" width="334.8" x="27.925" y="12.0390625"/>
  </clipPath>
 </defs>
</svg>
