<?xml version="1.0" encoding="utf-8" standalone="no"?>
<!DOCTYPE svg PUBLIC "-//W3C//DTD SVG 1.1//EN"
  "http://www.w3.org/Graphics/SVG/1.1/DTD/svg11.dtd">
<!-- Created with matplotlib (http://matplotlib.org/) -->
<svg height="255pt" version="1.1" viewBox="0 0 382 255" width="382pt" xmlns="http://www.w3.org/2000/svg" xmlns:xlink="http://www.w3.org/1999/xlink">
 <defs>
  <style type="text/css">
*{stroke-linecap:butt;stroke-linejoin:round;stroke-miterlimit:100000;}
  </style>
 </defs>
 <g id="figure_1">
  <g id="patch_1">
   <path d="M 0 255.278125 
L 382.257983 255.278125 
L 382.257983 0 
L 0 0 
z
" style="fill:#ffffff;"/>
  </g>
  <g id="axes_1">
   <g id="patch_2">
    <path d="M 31.103125 230.4 
L 365.903125 230.4 
L 365.903125 7.2 
L 31.103125 7.2 
z
" style="fill:#e5e5e5;"/>
   </g>
   <g id="matplotlib.axis_1">
    <g id="xtick_1">
     <g id="line2d_1">
      <path clip-path="url(#pdbcdf50e1c)" d="M 31.103125 230.4 
L 31.103125 7.2 
" style="fill:none;stroke:#ffffff;stroke-linecap:square;stroke-width:0.5;"/>
     </g>
     <g id="line2d_2">
      <defs>
       <path d="M 0 0 
L 0 4 
" id="m0ef1fd0a49" style="stroke:#555555;stroke-width:0.5;"/>
      </defs>
      <g>
       <use style="fill:#555555;stroke:#555555;stroke-width:0.5;" x="31.103125" xlink:href="#m0ef1fd0a49" y="230.4"/>
      </g>
     </g>
     <g id="line2d_3">
      <defs>
       <path d="M 0 0 
L 0 -4 
" id="m7e0adb6ecd" style="stroke:#555555;stroke-width:0.5;"/>
      </defs>
      <g>
       <use style="fill:#555555;stroke:#555555;stroke-width:0.5;" x="31.103125" xlink:href="#m7e0adb6ecd" y="7.2"/>
      </g>
     </g>
     <g id="text_1">
      <!-- 2000 -->
      <defs>
       <path d="M 31.78125 66.40625 
Q 24.171875 66.40625 20.328125 58.90625 
Q 16.5 51.421875 16.5 36.375 
Q 16.5 21.390625 20.328125 13.890625 
Q 24.171875 6.390625 31.78125 6.390625 
Q 39.453125 6.390625 43.28125 13.890625 
Q 47.125 21.390625 47.125 36.375 
Q 47.125 51.421875 43.28125 58.90625 
Q 39.453125 66.40625 31.78125 66.40625 
M 31.78125 74.21875 
Q 44.046875 74.21875 50.515625 64.515625 
Q 56.984375 54.828125 56.984375 36.375 
Q 56.984375 17.96875 50.515625 8.265625 
Q 44.046875 -1.421875 31.78125 -1.421875 
Q 19.53125 -1.421875 13.0625 8.265625 
Q 6.59375 17.96875 6.59375 36.375 
Q 6.59375 54.828125 13.0625 64.515625 
Q 19.53125 74.21875 31.78125 74.21875 
" id="BitstreamVeraSans-Roman-30"/>
       <path d="M 19.1875 8.296875 
L 53.609375 8.296875 
L 53.609375 0 
L 7.328125 0 
L 7.328125 8.296875 
Q 12.9375 14.109375 22.625 23.890625 
Q 32.328125 33.6875 34.8125 36.53125 
Q 39.546875 41.84375 41.421875 45.53125 
Q 43.3125 49.21875 43.3125 52.78125 
Q 43.3125 58.59375 39.234375 62.25 
Q 35.15625 65.921875 28.609375 65.921875 
Q 23.96875 65.921875 18.8125 64.3125 
Q 13.671875 62.703125 7.8125 59.421875 
L 7.8125 69.390625 
Q 13.765625 71.78125 18.9375 73 
Q 24.125 74.21875 28.421875 74.21875 
Q 39.75 74.21875 46.484375 68.546875 
Q 53.21875 62.890625 53.21875 53.421875 
Q 53.21875 48.921875 51.53125 44.890625 
Q 49.859375 40.875 45.40625 35.40625 
Q 44.1875 33.984375 37.640625 27.21875 
Q 31.109375 20.453125 19.1875 8.296875 
" id="BitstreamVeraSans-Roman-32"/>
      </defs>
      <g style="fill:#555555;" transform="translate(18.378125 245.9984375)scale(0.1 -0.1)">
       <use xlink:href="#BitstreamVeraSans-Roman-32"/>
       <use x="63.623046875" xlink:href="#BitstreamVeraSans-Roman-30"/>
       <use x="127.24609375" xlink:href="#BitstreamVeraSans-Roman-30"/>
       <use x="190.869140625" xlink:href="#BitstreamVeraSans-Roman-30"/>
      </g>
     </g>
    </g>
    <g id="xtick_2">
     <g id="line2d_4">
      <path clip-path="url(#pdbcdf50e1c)" d="M 72.754784 230.4 
L 72.754784 7.2 
" style="fill:none;stroke:#ffffff;stroke-linecap:square;stroke-width:0.5;"/>
     </g>
     <g id="line2d_5">
      <g>
       <use style="fill:#555555;stroke:#555555;stroke-width:0.5;" x="72.7547837678" xlink:href="#m0ef1fd0a49" y="230.4"/>
      </g>
     </g>
     <g id="line2d_6">
      <g>
       <use style="fill:#555555;stroke:#555555;stroke-width:0.5;" x="72.7547837678" xlink:href="#m7e0adb6ecd" y="7.2"/>
      </g>
     </g>
     <g id="text_2">
      <!-- 2002 -->
      <g style="fill:#555555;" transform="translate(60.0297837678 245.9984375)scale(0.1 -0.1)">
       <use xlink:href="#BitstreamVeraSans-Roman-32"/>
       <use x="63.623046875" xlink:href="#BitstreamVeraSans-Roman-30"/>
       <use x="127.24609375" xlink:href="#BitstreamVeraSans-Roman-30"/>
       <use x="190.869140625" xlink:href="#BitstreamVeraSans-Roman-32"/>
      </g>
     </g>
    </g>
    <g id="xtick_3">
     <g id="line2d_7">
      <path clip-path="url(#pdbcdf50e1c)" d="M 114.00976 230.4 
L 114.00976 7.2 
" style="fill:none;stroke:#ffffff;stroke-linecap:square;stroke-width:0.5;"/>
     </g>
     <g id="line2d_8">
      <g>
       <use style="fill:#555555;stroke:#555555;stroke-width:0.5;" x="114.009760071" xlink:href="#m0ef1fd0a49" y="230.4"/>
      </g>
     </g>
     <g id="line2d_9">
      <g>
       <use style="fill:#555555;stroke:#555555;stroke-width:0.5;" x="114.009760071" xlink:href="#m7e0adb6ecd" y="7.2"/>
      </g>
     </g>
     <g id="text_3">
      <!-- 2004 -->
      <defs>
       <path d="M 37.796875 64.3125 
L 12.890625 25.390625 
L 37.796875 25.390625 
z
M 35.203125 72.90625 
L 47.609375 72.90625 
L 47.609375 25.390625 
L 58.015625 25.390625 
L 58.015625 17.1875 
L 47.609375 17.1875 
L 47.609375 0 
L 37.796875 0 
L 37.796875 17.1875 
L 4.890625 17.1875 
L 4.890625 26.703125 
z
" id="BitstreamVeraSans-Roman-34"/>
      </defs>
      <g style="fill:#555555;" transform="translate(101.284760071 245.9984375)scale(0.1 -0.1)">
       <use xlink:href="#BitstreamVeraSans-Roman-32"/>
       <use x="63.623046875" xlink:href="#BitstreamVeraSans-Roman-30"/>
       <use x="127.24609375" xlink:href="#BitstreamVeraSans-Roman-30"/>
       <use x="190.869140625" xlink:href="#BitstreamVeraSans-Roman-34"/>
      </g>
     </g>
    </g>
    <g id="xtick_4">
     <g id="line2d_10">
      <path clip-path="url(#pdbcdf50e1c)" d="M 155.264736 230.4 
L 155.264736 7.2 
" style="fill:none;stroke:#ffffff;stroke-linecap:square;stroke-width:0.5;"/>
     </g>
     <g id="line2d_11">
      <g>
       <use style="fill:#555555;stroke:#555555;stroke-width:0.5;" x="155.264736374" xlink:href="#m0ef1fd0a49" y="230.4"/>
      </g>
     </g>
     <g id="line2d_12">
      <g>
       <use style="fill:#555555;stroke:#555555;stroke-width:0.5;" x="155.264736374" xlink:href="#m7e0adb6ecd" y="7.2"/>
      </g>
     </g>
     <g id="text_4">
      <!-- 2006 -->
      <defs>
       <path d="M 33.015625 40.375 
Q 26.375 40.375 22.484375 35.828125 
Q 18.609375 31.296875 18.609375 23.390625 
Q 18.609375 15.53125 22.484375 10.953125 
Q 26.375 6.390625 33.015625 6.390625 
Q 39.65625 6.390625 43.53125 10.953125 
Q 47.40625 15.53125 47.40625 23.390625 
Q 47.40625 31.296875 43.53125 35.828125 
Q 39.65625 40.375 33.015625 40.375 
M 52.59375 71.296875 
L 52.59375 62.3125 
Q 48.875 64.0625 45.09375 64.984375 
Q 41.3125 65.921875 37.59375 65.921875 
Q 27.828125 65.921875 22.671875 59.328125 
Q 17.53125 52.734375 16.796875 39.40625 
Q 19.671875 43.65625 24.015625 45.921875 
Q 28.375 48.1875 33.59375 48.1875 
Q 44.578125 48.1875 50.953125 41.515625 
Q 57.328125 34.859375 57.328125 23.390625 
Q 57.328125 12.15625 50.6875 5.359375 
Q 44.046875 -1.421875 33.015625 -1.421875 
Q 20.359375 -1.421875 13.671875 8.265625 
Q 6.984375 17.96875 6.984375 36.375 
Q 6.984375 53.65625 15.1875 63.9375 
Q 23.390625 74.21875 37.203125 74.21875 
Q 40.921875 74.21875 44.703125 73.484375 
Q 48.484375 72.75 52.59375 71.296875 
" id="BitstreamVeraSans-Roman-36"/>
      </defs>
      <g style="fill:#555555;" transform="translate(142.539736374 245.9984375)scale(0.1 -0.1)">
       <use xlink:href="#BitstreamVeraSans-Roman-32"/>
       <use x="63.623046875" xlink:href="#BitstreamVeraSans-Roman-30"/>
       <use x="127.24609375" xlink:href="#BitstreamVeraSans-Roman-30"/>
       <use x="190.869140625" xlink:href="#BitstreamVeraSans-Roman-36"/>
      </g>
     </g>
    </g>
    <g id="xtick_5">
     <g id="line2d_13">
      <path clip-path="url(#pdbcdf50e1c)" d="M 196.916395 230.4 
L 196.916395 7.2 
" style="fill:none;stroke:#ffffff;stroke-linecap:square;stroke-width:0.5;"/>
     </g>
     <g id="line2d_14">
      <g>
       <use style="fill:#555555;stroke:#555555;stroke-width:0.5;" x="196.916395142" xlink:href="#m0ef1fd0a49" y="230.4"/>
      </g>
     </g>
     <g id="line2d_15">
      <g>
       <use style="fill:#555555;stroke:#555555;stroke-width:0.5;" x="196.916395142" xlink:href="#m7e0adb6ecd" y="7.2"/>
      </g>
     </g>
     <g id="text_5">
      <!-- 2008 -->
      <defs>
       <path d="M 31.78125 34.625 
Q 24.75 34.625 20.71875 30.859375 
Q 16.703125 27.09375 16.703125 20.515625 
Q 16.703125 13.921875 20.71875 10.15625 
Q 24.75 6.390625 31.78125 6.390625 
Q 38.8125 6.390625 42.859375 10.171875 
Q 46.921875 13.96875 46.921875 20.515625 
Q 46.921875 27.09375 42.890625 30.859375 
Q 38.875 34.625 31.78125 34.625 
M 21.921875 38.8125 
Q 15.578125 40.375 12.03125 44.71875 
Q 8.5 49.078125 8.5 55.328125 
Q 8.5 64.0625 14.71875 69.140625 
Q 20.953125 74.21875 31.78125 74.21875 
Q 42.671875 74.21875 48.875 69.140625 
Q 55.078125 64.0625 55.078125 55.328125 
Q 55.078125 49.078125 51.53125 44.71875 
Q 48 40.375 41.703125 38.8125 
Q 48.828125 37.15625 52.796875 32.3125 
Q 56.78125 27.484375 56.78125 20.515625 
Q 56.78125 9.90625 50.3125 4.234375 
Q 43.84375 -1.421875 31.78125 -1.421875 
Q 19.734375 -1.421875 13.25 4.234375 
Q 6.78125 9.90625 6.78125 20.515625 
Q 6.78125 27.484375 10.78125 32.3125 
Q 14.796875 37.15625 21.921875 38.8125 
M 18.3125 54.390625 
Q 18.3125 48.734375 21.84375 45.5625 
Q 25.390625 42.390625 31.78125 42.390625 
Q 38.140625 42.390625 41.71875 45.5625 
Q 45.3125 48.734375 45.3125 54.390625 
Q 45.3125 60.0625 41.71875 63.234375 
Q 38.140625 66.40625 31.78125 66.40625 
Q 25.390625 66.40625 21.84375 63.234375 
Q 18.3125 60.0625 18.3125 54.390625 
" id="BitstreamVeraSans-Roman-38"/>
      </defs>
      <g style="fill:#555555;" transform="translate(184.191395142 245.9984375)scale(0.1 -0.1)">
       <use xlink:href="#BitstreamVeraSans-Roman-32"/>
       <use x="63.623046875" xlink:href="#BitstreamVeraSans-Roman-30"/>
       <use x="127.24609375" xlink:href="#BitstreamVeraSans-Roman-30"/>
       <use x="190.869140625" xlink:href="#BitstreamVeraSans-Roman-38"/>
      </g>
     </g>
    </g>
    <g id="xtick_6">
     <g id="line2d_16">
      <path clip-path="url(#pdbcdf50e1c)" d="M 238.171371 230.4 
L 238.171371 7.2 
" style="fill:none;stroke:#ffffff;stroke-linecap:square;stroke-width:0.5;"/>
     </g>
     <g id="line2d_17">
      <g>
       <use style="fill:#555555;stroke:#555555;stroke-width:0.5;" x="238.171371445" xlink:href="#m0ef1fd0a49" y="230.4"/>
      </g>
     </g>
     <g id="line2d_18">
      <g>
       <use style="fill:#555555;stroke:#555555;stroke-width:0.5;" x="238.171371445" xlink:href="#m7e0adb6ecd" y="7.2"/>
      </g>
     </g>
     <g id="text_6">
      <!-- 2010 -->
      <defs>
       <path d="M 12.40625 8.296875 
L 28.515625 8.296875 
L 28.515625 63.921875 
L 10.984375 60.40625 
L 10.984375 69.390625 
L 28.421875 72.90625 
L 38.28125 72.90625 
L 38.28125 8.296875 
L 54.390625 8.296875 
L 54.390625 0 
L 12.40625 0 
z
" id="BitstreamVeraSans-Roman-31"/>
      </defs>
      <g style="fill:#555555;" transform="translate(225.446371445 245.9984375)scale(0.1 -0.1)">
       <use xlink:href="#BitstreamVeraSans-Roman-32"/>
       <use x="63.623046875" xlink:href="#BitstreamVeraSans-Roman-30"/>
       <use x="127.24609375" xlink:href="#BitstreamVeraSans-Roman-31"/>
       <use x="190.869140625" xlink:href="#BitstreamVeraSans-Roman-30"/>
      </g>
     </g>
    </g>
    <g id="xtick_7">
     <g id="line2d_19">
      <path clip-path="url(#pdbcdf50e1c)" d="M 279.426348 230.4 
L 279.426348 7.2 
" style="fill:none;stroke:#ffffff;stroke-linecap:square;stroke-width:0.5;"/>
     </g>
     <g id="line2d_20">
      <g>
       <use style="fill:#555555;stroke:#555555;stroke-width:0.5;" x="279.426347749" xlink:href="#m0ef1fd0a49" y="230.4"/>
      </g>
     </g>
     <g id="line2d_21">
      <g>
       <use style="fill:#555555;stroke:#555555;stroke-width:0.5;" x="279.426347749" xlink:href="#m7e0adb6ecd" y="7.2"/>
      </g>
     </g>
     <g id="text_7">
      <!-- 2012 -->
      <g style="fill:#555555;" transform="translate(266.701347749 245.9984375)scale(0.1 -0.1)">
       <use xlink:href="#BitstreamVeraSans-Roman-32"/>
       <use x="63.623046875" xlink:href="#BitstreamVeraSans-Roman-30"/>
       <use x="127.24609375" xlink:href="#BitstreamVeraSans-Roman-31"/>
       <use x="190.869140625" xlink:href="#BitstreamVeraSans-Roman-32"/>
      </g>
     </g>
    </g>
    <g id="xtick_8">
     <g id="line2d_22">
      <path clip-path="url(#pdbcdf50e1c)" d="M 321.078007 230.4 
L 321.078007 7.2 
" style="fill:none;stroke:#ffffff;stroke-linecap:square;stroke-width:0.5;"/>
     </g>
     <g id="line2d_23">
      <g>
       <use style="fill:#555555;stroke:#555555;stroke-width:0.5;" x="321.078006517" xlink:href="#m0ef1fd0a49" y="230.4"/>
      </g>
     </g>
     <g id="line2d_24">
      <g>
       <use style="fill:#555555;stroke:#555555;stroke-width:0.5;" x="321.078006517" xlink:href="#m7e0adb6ecd" y="7.2"/>
      </g>
     </g>
     <g id="text_8">
      <!-- 2014 -->
      <g style="fill:#555555;" transform="translate(308.353006517 245.9984375)scale(0.1 -0.1)">
       <use xlink:href="#BitstreamVeraSans-Roman-32"/>
       <use x="63.623046875" xlink:href="#BitstreamVeraSans-Roman-30"/>
       <use x="127.24609375" xlink:href="#BitstreamVeraSans-Roman-31"/>
       <use x="190.869140625" xlink:href="#BitstreamVeraSans-Roman-34"/>
      </g>
     </g>
    </g>
    <g id="xtick_9">
     <g id="line2d_25">
      <path clip-path="url(#pdbcdf50e1c)" d="M 362.332983 230.4 
L 362.332983 7.2 
" style="fill:none;stroke:#ffffff;stroke-linecap:square;stroke-width:0.5;"/>
     </g>
     <g id="line2d_26">
      <g>
       <use style="fill:#555555;stroke:#555555;stroke-width:0.5;" x="362.33298282" xlink:href="#m0ef1fd0a49" y="230.4"/>
      </g>
     </g>
     <g id="line2d_27">
      <g>
       <use style="fill:#555555;stroke:#555555;stroke-width:0.5;" x="362.33298282" xlink:href="#m7e0adb6ecd" y="7.2"/>
      </g>
     </g>
     <g id="text_9">
      <!-- 2016 -->
      <g style="fill:#555555;" transform="translate(349.60798282 245.9984375)scale(0.1 -0.1)">
       <use xlink:href="#BitstreamVeraSans-Roman-32"/>
       <use x="63.623046875" xlink:href="#BitstreamVeraSans-Roman-30"/>
       <use x="127.24609375" xlink:href="#BitstreamVeraSans-Roman-31"/>
       <use x="190.869140625" xlink:href="#BitstreamVeraSans-Roman-36"/>
      </g>
     </g>
    </g>
    <g id="xtick_10">
     <g id="line2d_28">
      <path clip-path="url(#pdbcdf50e1c)" d="M 365.903125 230.4 
L 365.903125 7.2 
" style="fill:none;stroke:#ffffff;stroke-linecap:square;stroke-width:0.5;"/>
     </g>
     <g id="line2d_29">
      <g>
       <use style="fill:#555555;stroke:#555555;stroke-width:0.5;" x="365.903125" xlink:href="#m0ef1fd0a49" y="230.4"/>
      </g>
     </g>
     <g id="line2d_30">
      <g>
       <use style="fill:#555555;stroke:#555555;stroke-width:0.5;" x="365.903125" xlink:href="#m7e0adb6ecd" y="7.2"/>
      </g>
     </g>
    </g>
    <g id="xtick_11">
     <g id="line2d_31">
      <defs>
       <path d="M 0 0 
L 0 2 
" id="maf90c181bd" style="stroke:#555555;stroke-width:0.5;"/>
      </defs>
      <g>
       <use style="fill:#555555;stroke:#555555;stroke-width:0.5;" x="31.103125" xlink:href="#maf90c181bd" y="230.4"/>
      </g>
     </g>
     <g id="line2d_32">
      <defs>
       <path d="M 0 0 
L 0 -2 
" id="mc59e9424c5" style="stroke:#555555;stroke-width:0.5;"/>
      </defs>
      <g>
       <use style="fill:#555555;stroke:#555555;stroke-width:0.5;" x="31.103125" xlink:href="#mc59e9424c5" y="7.2"/>
      </g>
     </g>
    </g>
    <g id="xtick_12">
     <g id="line2d_33">
      <g>
       <use style="fill:#555555;stroke:#555555;stroke-width:0.5;" x="51.7306131517" xlink:href="#maf90c181bd" y="230.4"/>
      </g>
     </g>
     <g id="line2d_34">
      <g>
       <use style="fill:#555555;stroke:#555555;stroke-width:0.5;" x="51.7306131517" xlink:href="#mc59e9424c5" y="7.2"/>
      </g>
     </g>
    </g>
    <g id="xtick_13">
     <g id="line2d_35">
      <g>
       <use style="fill:#555555;stroke:#555555;stroke-width:0.5;" x="72.7547837678" xlink:href="#maf90c181bd" y="230.4"/>
      </g>
     </g>
     <g id="line2d_36">
      <g>
       <use style="fill:#555555;stroke:#555555;stroke-width:0.5;" x="72.7547837678" xlink:href="#mc59e9424c5" y="7.2"/>
      </g>
     </g>
    </g>
    <g id="xtick_14">
     <g id="line2d_37">
      <g>
       <use style="fill:#555555;stroke:#555555;stroke-width:0.5;" x="93.3822719194" xlink:href="#maf90c181bd" y="230.4"/>
      </g>
     </g>
     <g id="line2d_38">
      <g>
       <use style="fill:#555555;stroke:#555555;stroke-width:0.5;" x="93.3822719194" xlink:href="#mc59e9424c5" y="7.2"/>
      </g>
     </g>
    </g>
    <g id="xtick_15">
     <g id="line2d_39">
      <g>
       <use style="fill:#555555;stroke:#555555;stroke-width:0.5;" x="114.009760071" xlink:href="#maf90c181bd" y="230.4"/>
      </g>
     </g>
     <g id="line2d_40">
      <g>
       <use style="fill:#555555;stroke:#555555;stroke-width:0.5;" x="114.009760071" xlink:href="#mc59e9424c5" y="7.2"/>
      </g>
     </g>
    </g>
    <g id="xtick_16">
     <g id="line2d_41">
      <g>
       <use style="fill:#555555;stroke:#555555;stroke-width:0.5;" x="134.637248223" xlink:href="#maf90c181bd" y="230.4"/>
      </g>
     </g>
     <g id="line2d_42">
      <g>
       <use style="fill:#555555;stroke:#555555;stroke-width:0.5;" x="134.637248223" xlink:href="#mc59e9424c5" y="7.2"/>
      </g>
     </g>
    </g>
    <g id="xtick_17">
     <g id="line2d_43">
      <g>
       <use style="fill:#555555;stroke:#555555;stroke-width:0.5;" x="155.264736374" xlink:href="#maf90c181bd" y="230.4"/>
      </g>
     </g>
     <g id="line2d_44">
      <g>
       <use style="fill:#555555;stroke:#555555;stroke-width:0.5;" x="155.264736374" xlink:href="#mc59e9424c5" y="7.2"/>
      </g>
     </g>
    </g>
    <g id="xtick_18">
     <g id="line2d_45">
      <g>
       <use style="fill:#555555;stroke:#555555;stroke-width:0.5;" x="175.892224526" xlink:href="#maf90c181bd" y="230.4"/>
      </g>
     </g>
     <g id="line2d_46">
      <g>
       <use style="fill:#555555;stroke:#555555;stroke-width:0.5;" x="175.892224526" xlink:href="#mc59e9424c5" y="7.2"/>
      </g>
     </g>
    </g>
    <g id="xtick_19">
     <g id="line2d_47">
      <g>
       <use style="fill:#555555;stroke:#555555;stroke-width:0.5;" x="196.916395142" xlink:href="#maf90c181bd" y="230.4"/>
      </g>
     </g>
     <g id="line2d_48">
      <g>
       <use style="fill:#555555;stroke:#555555;stroke-width:0.5;" x="196.916395142" xlink:href="#mc59e9424c5" y="7.2"/>
      </g>
     </g>
    </g>
    <g id="xtick_20">
     <g id="line2d_49">
      <g>
       <use style="fill:#555555;stroke:#555555;stroke-width:0.5;" x="217.543883294" xlink:href="#maf90c181bd" y="230.4"/>
      </g>
     </g>
     <g id="line2d_50">
      <g>
       <use style="fill:#555555;stroke:#555555;stroke-width:0.5;" x="217.543883294" xlink:href="#mc59e9424c5" y="7.2"/>
      </g>
     </g>
    </g>
    <g id="xtick_21">
     <g id="line2d_51">
      <g>
       <use style="fill:#555555;stroke:#555555;stroke-width:0.5;" x="238.171371445" xlink:href="#maf90c181bd" y="230.4"/>
      </g>
     </g>
     <g id="line2d_52">
      <g>
       <use style="fill:#555555;stroke:#555555;stroke-width:0.5;" x="238.171371445" xlink:href="#mc59e9424c5" y="7.2"/>
      </g>
     </g>
    </g>
    <g id="xtick_22">
     <g id="line2d_53">
      <g>
       <use style="fill:#555555;stroke:#555555;stroke-width:0.5;" x="258.798859597" xlink:href="#maf90c181bd" y="230.4"/>
      </g>
     </g>
     <g id="line2d_54">
      <g>
       <use style="fill:#555555;stroke:#555555;stroke-width:0.5;" x="258.798859597" xlink:href="#mc59e9424c5" y="7.2"/>
      </g>
     </g>
    </g>
    <g id="xtick_23">
     <g id="line2d_55">
      <g>
       <use style="fill:#555555;stroke:#555555;stroke-width:0.5;" x="279.426347749" xlink:href="#maf90c181bd" y="230.4"/>
      </g>
     </g>
     <g id="line2d_56">
      <g>
       <use style="fill:#555555;stroke:#555555;stroke-width:0.5;" x="279.426347749" xlink:href="#mc59e9424c5" y="7.2"/>
      </g>
     </g>
    </g>
    <g id="xtick_24">
     <g id="line2d_57">
      <g>
       <use style="fill:#555555;stroke:#555555;stroke-width:0.5;" x="300.450518365" xlink:href="#maf90c181bd" y="230.4"/>
      </g>
     </g>
     <g id="line2d_58">
      <g>
       <use style="fill:#555555;stroke:#555555;stroke-width:0.5;" x="300.450518365" xlink:href="#mc59e9424c5" y="7.2"/>
      </g>
     </g>
    </g>
    <g id="xtick_25">
     <g id="line2d_59">
      <g>
       <use style="fill:#555555;stroke:#555555;stroke-width:0.5;" x="321.078006517" xlink:href="#maf90c181bd" y="230.4"/>
      </g>
     </g>
     <g id="line2d_60">
      <g>
       <use style="fill:#555555;stroke:#555555;stroke-width:0.5;" x="321.078006517" xlink:href="#mc59e9424c5" y="7.2"/>
      </g>
     </g>
    </g>
    <g id="xtick_26">
     <g id="line2d_61">
      <g>
       <use style="fill:#555555;stroke:#555555;stroke-width:0.5;" x="341.705494668" xlink:href="#maf90c181bd" y="230.4"/>
      </g>
     </g>
     <g id="line2d_62">
      <g>
       <use style="fill:#555555;stroke:#555555;stroke-width:0.5;" x="341.705494668" xlink:href="#mc59e9424c5" y="7.2"/>
      </g>
     </g>
    </g>
    <g id="xtick_27">
     <g id="line2d_63">
      <g>
       <use style="fill:#555555;stroke:#555555;stroke-width:0.5;" x="362.33298282" xlink:href="#maf90c181bd" y="230.4"/>
      </g>
     </g>
     <g id="line2d_64">
      <g>
       <use style="fill:#555555;stroke:#555555;stroke-width:0.5;" x="362.33298282" xlink:href="#mc59e9424c5" y="7.2"/>
      </g>
     </g>
    </g>
   </g>
   <g id="matplotlib.axis_2">
    <g id="ytick_1">
     <g id="line2d_65">
      <path clip-path="url(#pdbcdf50e1c)" d="M 31.103125 218 
L 365.903125 218 
" style="fill:none;stroke:#ffffff;stroke-linecap:square;stroke-width:0.5;"/>
     </g>
     <g id="line2d_66">
      <defs>
       <path d="M 0 0 
L -4 0 
" id="mfe5dd53d40" style="stroke:#555555;stroke-width:0.5;"/>
      </defs>
      <g>
       <use style="fill:#555555;stroke:#555555;stroke-width:0.5;" x="31.103125" xlink:href="#mfe5dd53d40" y="218.0"/>
      </g>
     </g>
     <g id="line2d_67">
      <defs>
       <path d="M 0 0 
L 4 0 
" id="m18a228b37e" style="stroke:#555555;stroke-width:0.5;"/>
      </defs>
      <g>
       <use style="fill:#555555;stroke:#555555;stroke-width:0.5;" x="365.903125" xlink:href="#m18a228b37e" y="218.0"/>
      </g>
     </g>
     <g id="text_10">
      <!-- 0.5 -->
      <defs>
       <path d="M 10.6875 12.40625 
L 21 12.40625 
L 21 0 
L 10.6875 0 
z
" id="BitstreamVeraSans-Roman-2e"/>
       <path d="M 10.796875 72.90625 
L 49.515625 72.90625 
L 49.515625 64.59375 
L 19.828125 64.59375 
L 19.828125 46.734375 
Q 21.96875 47.46875 24.109375 47.828125 
Q 26.265625 48.1875 28.421875 48.1875 
Q 40.625 48.1875 47.75 41.5 
Q 54.890625 34.8125 54.890625 23.390625 
Q 54.890625 11.625 47.5625 5.09375 
Q 40.234375 -1.421875 26.90625 -1.421875 
Q 22.3125 -1.421875 17.546875 -0.640625 
Q 12.796875 0.140625 7.71875 1.703125 
L 7.71875 11.625 
Q 12.109375 9.234375 16.796875 8.0625 
Q 21.484375 6.890625 26.703125 6.890625 
Q 35.15625 6.890625 40.078125 11.328125 
Q 45.015625 15.765625 45.015625 23.390625 
Q 45.015625 31 40.078125 35.4375 
Q 35.15625 39.890625 26.703125 39.890625 
Q 22.75 39.890625 18.8125 39.015625 
Q 14.890625 38.140625 10.796875 36.28125 
z
" id="BitstreamVeraSans-Roman-35"/>
      </defs>
      <g style="fill:#555555;" transform="translate(7.2 220.759375)scale(0.1 -0.1)">
       <use xlink:href="#BitstreamVeraSans-Roman-30"/>
       <use x="63.623046875" xlink:href="#BitstreamVeraSans-Roman-2e"/>
       <use x="95.41015625" xlink:href="#BitstreamVeraSans-Roman-35"/>
      </g>
     </g>
    </g>
    <g id="ytick_2">
     <g id="line2d_68">
      <path clip-path="url(#pdbcdf50e1c)" d="M 31.103125 156 
L 365.903125 156 
" style="fill:none;stroke:#ffffff;stroke-linecap:square;stroke-width:0.5;"/>
     </g>
     <g id="line2d_69">
      <g>
       <use style="fill:#555555;stroke:#555555;stroke-width:0.5;" x="31.103125" xlink:href="#mfe5dd53d40" y="156.0"/>
      </g>
     </g>
     <g id="line2d_70">
      <g>
       <use style="fill:#555555;stroke:#555555;stroke-width:0.5;" x="365.903125" xlink:href="#m18a228b37e" y="156.0"/>
      </g>
     </g>
     <g id="text_11">
      <!-- 1.0 -->
      <g style="fill:#555555;" transform="translate(7.2 158.759375)scale(0.1 -0.1)">
       <use xlink:href="#BitstreamVeraSans-Roman-31"/>
       <use x="63.623046875" xlink:href="#BitstreamVeraSans-Roman-2e"/>
       <use x="95.41015625" xlink:href="#BitstreamVeraSans-Roman-30"/>
      </g>
     </g>
    </g>
    <g id="ytick_3">
     <g id="line2d_71">
      <path clip-path="url(#pdbcdf50e1c)" d="M 31.103125 94 
L 365.903125 94 
" style="fill:none;stroke:#ffffff;stroke-linecap:square;stroke-width:0.5;"/>
     </g>
     <g id="line2d_72">
      <g>
       <use style="fill:#555555;stroke:#555555;stroke-width:0.5;" x="31.103125" xlink:href="#mfe5dd53d40" y="94.0"/>
      </g>
     </g>
     <g id="line2d_73">
      <g>
       <use style="fill:#555555;stroke:#555555;stroke-width:0.5;" x="365.903125" xlink:href="#m18a228b37e" y="94.0"/>
      </g>
     </g>
     <g id="text_12">
      <!-- 1.5 -->
      <g style="fill:#555555;" transform="translate(7.2 96.759375)scale(0.1 -0.1)">
       <use xlink:href="#BitstreamVeraSans-Roman-31"/>
       <use x="63.623046875" xlink:href="#BitstreamVeraSans-Roman-2e"/>
       <use x="95.41015625" xlink:href="#BitstreamVeraSans-Roman-35"/>
      </g>
     </g>
    </g>
    <g id="ytick_4">
     <g id="line2d_74">
      <path clip-path="url(#pdbcdf50e1c)" d="M 31.103125 32 
L 365.903125 32 
" style="fill:none;stroke:#ffffff;stroke-linecap:square;stroke-width:0.5;"/>
     </g>
     <g id="line2d_75">
      <g>
       <use style="fill:#555555;stroke:#555555;stroke-width:0.5;" x="31.103125" xlink:href="#mfe5dd53d40" y="32.0"/>
      </g>
     </g>
     <g id="line2d_76">
      <g>
       <use style="fill:#555555;stroke:#555555;stroke-width:0.5;" x="365.903125" xlink:href="#m18a228b37e" y="32.0"/>
      </g>
     </g>
     <g id="text_13">
      <!-- 2.0 -->
      <g style="fill:#555555;" transform="translate(7.2 34.759375)scale(0.1 -0.1)">
       <use xlink:href="#BitstreamVeraSans-Roman-32"/>
       <use x="63.623046875" xlink:href="#BitstreamVeraSans-Roman-2e"/>
       <use x="95.41015625" xlink:href="#BitstreamVeraSans-Roman-30"/>
      </g>
     </g>
    </g>
   </g>
   <g id="line2d_77">
    <path clip-path="url(#pdbcdf50e1c)" d="M 31.103125 154.053419 
L 32.689855 149.171249 
L 34.276585 146.947802 
L 35.863315 141.02728 
L 37.450044 137.783766 
L 39.036774 127.750229 
L 40.623504 127.600922 
L 43.796964 122.286396 
L 45.383694 125.388341 
L 46.970424 124.952515 
L 48.557153 123.617852 
L 50.143883 120.458193 
L 51.730613 120.23834 
L 53.317343 120.23834 
L 54.904073 121.294891 
L 56.490803 117.346665 
L 58.077533 118.830399 
L 59.664262 116.458073 
L 61.250992 119.905257 
L 62.837722 121.752343 
L 64.424452 115.892482 
L 66.011182 112.469988 
L 67.597912 116.160791 
L 69.184642 118.194853 
L 70.771371 112.948825 
L 72.358101 108.831791 
L 73.944831 109.322902 
L 75.531561 106.621817 
L 77.118291 101.039112 
L 78.705021 102.204979 
L 80.291751 111.423336 
L 81.87848 113.734351 
L 83.46521 118.048493 
L 85.05194 119.96476 
L 86.63867 124.503997 
L 88.2254 124.503997 
L 89.81213 121.504425 
L 91.39886 121.772451 
L 92.985589 128.796317 
L 94.572319 127.387772 
L 96.159049 128.869849 
L 97.745779 127.978436 
L 99.332509 132.157138 
L 100.919239 129.858038 
L 102.505969 126.958952 
L 104.092698 124.920944 
L 105.679428 126.938485 
L 107.266158 129.447346 
L 108.852888 128.127593 
L 110.439618 128.913627 
L 112.026348 125.773628 
L 113.613078 125.432544 
L 115.199807 125.432544 
L 116.786537 126.846147 
L 118.373267 125.0968 
L 119.959997 129.355649 
L 121.546727 131.309534 
L 123.133457 138.844472 
L 124.720187 143.459412 
L 126.306916 141.194136 
L 127.893646 140.996412 
L 129.480376 144.003277 
L 131.067106 144.49725 
L 132.653836 148.966175 
L 134.240566 148.480908 
L 135.827296 144.244035 
L 137.414025 142.578722 
L 139.000755 149.234358 
L 140.587485 153.789079 
L 142.174215 157.722058 
L 143.760945 149.204396 
L 145.347675 153.6501 
L 146.934405 147.922675 
L 148.521134 143.194219 
L 150.107864 143.138302 
L 151.694594 148.921631 
L 153.281324 149.966733 
L 154.868054 147.101897 
L 156.454784 141.522901 
L 158.041514 142.824537 
L 159.628243 139.698595 
L 161.214973 137.615585 
L 162.801703 121.680635 
L 164.388433 134.001916 
L 165.975163 130.780879 
L 167.561893 136.852298 
L 169.148623 136.227907 
L 170.735352 133.719219 
L 172.322082 129.507846 
L 173.908812 127.343777 
L 175.495542 120.524243 
L 177.082272 112.635799 
L 178.669002 101.205958 
L 180.255732 97.575922 
L 181.842461 86.944451 
L 183.429191 77.071891 
L 185.015921 59.114627 
L 186.602651 56.487627 
L 188.189381 46.996495 
L 189.776111 39.289632 
L 191.362841 36.352057 
L 192.94957 32.856034 
L 194.5363 47.456443 
L 196.12303 30.355359 
L 197.70976 56.878696 
L 199.29649 58.409128 
L 202.46995 93.029393 
L 205.643409 106.47213 
L 207.230139 102.914549 
L 208.816869 112.771501 
L 210.403599 118.881203 
L 211.990329 114.744179 
L 213.577059 135.709773 
L 215.163789 145.193218 
L 216.750518 143.599204 
L 218.337248 137.385183 
L 219.923978 126.820148 
L 221.510708 124.325059 
L 223.097438 118.276241 
L 224.684168 117.010557 
L 226.270898 114.191006 
L 227.857627 105.867126 
L 229.444357 104.493827 
L 231.031087 123.618687 
L 232.617817 134.35712 
L 234.204547 130.9358 
L 235.791277 128.057395 
L 237.378007 136.335334 
L 238.964736 135.264237 
L 240.551466 131.181751 
L 242.138196 134.894472 
L 243.724926 136.220214 
L 245.311656 144.799703 
L 246.898386 149.020452 
L 248.485116 157.882152 
L 250.071845 153.92817 
L 251.658575 153.332824 
L 253.245305 151.417898 
L 254.832035 147.256961 
L 256.418765 152.998081 
L 258.005495 156.058106 
L 259.592225 159.839225 
L 261.178954 155.52581 
L 262.765684 157.971501 
L 264.352414 155.694269 
L 265.939144 157.370029 
L 267.525874 156.40228 
L 269.112604 153.968299 
L 270.699334 153.273307 
L 272.286063 150.217624 
L 273.872793 152.586052 
L 275.459523 156.247624 
L 277.046253 161.807371 
L 278.632983 165.592126 
L 280.219713 166.601287 
L 281.806443 165.597323 
L 283.393172 166.078682 
L 284.979902 164.92364 
L 286.566632 162.245353 
L 288.153362 164.886239 
L 289.740092 164.777748 
L 291.326822 166.422572 
L 292.913552 169.191434 
L 294.500281 171.615354 
L 296.087011 169.856814 
L 297.673741 173.162961 
L 299.260471 169.22993 
L 300.847201 167.960694 
L 302.433931 167.781337 
L 304.020661 165.939621 
L 305.60739 167.100597 
L 307.19412 164.345296 
L 308.78085 164.029432 
L 310.36758 162.141049 
L 311.95431 163.822556 
L 313.54104 163.219997 
L 315.12777 163.781922 
L 316.714499 164.225881 
L 318.301229 159.393583 
L 319.887959 163.564911 
L 321.474689 165.629231 
L 323.061419 162.640004 
L 324.648149 166.951484 
L 327.821608 164.171148 
L 329.408338 164.286315 
L 330.995068 162.914865 
L 332.581798 155.864251 
L 334.168528 156.425889 
L 335.755258 159.030075 
L 337.341988 159.50549 
L 338.928717 159.491814 
L 340.515447 162.181507 
L 342.102177 166.450297 
L 345.275637 168.802755 
L 346.862367 166.525787 
L 348.449097 167.710714 
L 350.035826 167.382183 
L 351.622556 178.046908 
L 353.209286 184.852032 
L 354.796016 203.528616 
L 356.382746 202.519744 
L 357.969476 200.187015 
L 359.556206 201.067071 
L 361.142935 201.437998 
L 362.729665 208.094508 
L 364.316395 206.102622 
L 365.903125 200.338881 
L 365.903125 200.338881 
" style="fill:none;stroke:#e24a33;stroke-linecap:square;"/>
   </g>
   <g id="line2d_78">
    <path clip-path="url(#pdbcdf50e1c)" d="M 31.103125 141.686376 
L 32.689855 138.640704 
L 34.276585 140.925886 
L 35.863315 150.530103 
L 37.450044 146.777359 
L 39.036774 157.02864 
L 40.623504 160.732316 
L 42.210234 158.659918 
L 43.796964 158.959392 
L 45.383694 159.865095 
L 46.970424 162.431898 
L 48.557153 164.685563 
L 50.143883 167.376574 
L 51.730613 168.628839 
L 53.317343 167.789564 
L 54.904073 167.136155 
L 56.490803 166.087659 
L 58.077533 164.064792 
L 59.664262 162.973039 
L 61.250992 162.728859 
L 62.837722 159.115707 
L 64.424452 160.341036 
L 66.011182 161.371173 
L 67.597912 161.514268 
L 69.184642 165.50483 
L 70.771371 162.846563 
L 72.358101 159.094075 
L 73.944831 164.114049 
L 75.531561 164.71789 
L 77.118291 164.065769 
L 78.705021 161.432651 
L 80.291751 160.289569 
L 81.87848 162.497264 
L 83.46521 160.456138 
L 85.05194 160.598855 
L 86.63867 158.67606 
L 88.2254 157.650092 
L 89.81213 153.757774 
L 91.39886 152.640889 
L 92.985589 156.137512 
L 94.572319 155.458962 
L 96.159049 152.869311 
L 97.745779 149.982371 
L 99.332509 144.496265 
L 100.919239 146.66439 
L 102.505969 143.629457 
L 104.092698 142.716903 
L 105.679428 144.980579 
L 107.266158 142.173252 
L 108.852888 130.888144 
L 110.439618 136.633729 
L 112.026348 127.362409 
L 113.613078 124.850552 
L 115.199807 139.36225 
L 116.786537 134.741205 
L 118.373267 133.791094 
L 119.959997 135.628512 
L 121.546727 132.934561 
L 123.133457 131.334524 
L 124.720187 128.981465 
L 126.306916 128.320677 
L 127.893646 119.626422 
L 129.480376 111.565213 
L 131.067106 116.990375 
L 132.653836 115.47987 
L 134.240566 112.767868 
L 135.827296 107.365244 
L 137.414025 97.237832 
L 139.000755 90.064665 
L 140.587485 90.068124 
L 142.174215 103.08277 
L 143.760945 89.694156 
L 145.347675 92.5032 
L 146.934405 107.518987 
L 148.521134 101.1592 
L 150.107864 91.625396 
L 151.694594 99.441503 
L 153.281324 97.515227 
L 154.868054 96.230809 
L 156.454784 98.70827 
L 158.041514 91.352417 
L 159.628243 82.216844 
L 161.214973 56.325795 
L 162.801703 75.08011 
L 164.388433 72.046979 
L 165.975163 70.76362 
L 167.561893 63.312865 
L 169.148623 61.755963 
L 170.735352 65.08831 
L 172.322082 68.024603 
L 173.908812 53.363269 
L 175.495542 49.938059 
L 177.082272 57.069191 
L 178.669002 66.252781 
L 181.842461 96.411823 
L 183.429191 82.467886 
L 185.015921 71.921133 
L 186.602651 54.021996 
L 188.189381 57.637647 
L 189.776111 58.019884 
L 191.362841 48.935193 
L 192.94957 64.262963 
L 194.5363 70.482136 
L 196.12303 66.907365 
L 197.70976 66.551924 
L 199.29649 73.686556 
L 200.88322 67.498568 
L 202.46995 53.189106 
L 204.05668 63.892425 
L 205.643409 57.238861 
L 207.230139 66.54051 
L 208.816869 81.802901 
L 210.403599 81.849124 
L 211.990329 78.134394 
L 213.577059 87.436317 
L 215.163789 85.410604 
L 216.750518 84.722967 
L 218.337248 107.32259 
L 219.923978 103.021981 
L 221.510708 125.951293 
L 223.097438 123.869932 
L 224.684168 133.321713 
L 226.270898 135.993207 
L 227.857627 150.107946 
L 229.444357 144.760993 
L 231.031087 142.444806 
L 232.617817 131.722403 
L 234.204547 134.740694 
L 235.791277 138.878164 
L 237.378007 142.542511 
L 238.964736 145.643974 
L 240.551466 145.853894 
L 242.138196 142.318977 
L 243.724926 142.845632 
L 245.311656 139.512151 
L 246.898386 147.705608 
L 248.485116 142.450245 
L 250.071845 132.310939 
L 251.658575 121.381818 
L 253.245305 137.074373 
L 254.832035 119.248052 
L 256.418765 119.434272 
L 258.005495 133.079052 
L 259.592225 131.945326 
L 261.178954 127.224627 
L 262.765684 132.773856 
L 264.352414 140.113606 
L 265.939144 137.714807 
L 267.525874 129.068165 
L 269.112604 127.54572 
L 270.699334 128.511224 
L 272.286063 131.556987 
L 273.872793 137.74928 
L 275.459523 134.506605 
L 277.046253 135.551873 
L 278.632983 131.124838 
L 280.219713 129.408045 
L 281.806443 128.449537 
L 283.393172 121.942078 
L 284.979902 126.929739 
L 286.566632 126.31449 
L 288.153362 121.616136 
L 289.740092 118.299777 
L 291.326822 119.896122 
L 292.913552 119.865287 
L 294.500281 120.10213 
L 296.087011 118.219723 
L 297.673741 118.699331 
L 299.260471 116.439554 
L 300.847201 116.396885 
L 302.433931 111.276542 
L 304.020661 104.112203 
L 305.60739 99.551818 
L 307.19412 103.845428 
L 308.78085 92.702625 
L 310.36758 88.192772 
L 311.95431 91.423366 
L 313.54104 90.015762 
L 315.12777 81.550402 
L 316.714499 88.668427 
L 318.301229 87.035227 
L 319.887959 78.058736 
L 321.474689 56.211829 
L 323.061419 58.721052 
L 324.648149 66.864596 
L 326.234879 66.828683 
L 327.821608 66.617825 
L 329.408338 62.37701 
L 330.995068 78.276561 
L 332.581798 71.019447 
L 334.168528 70.426936 
L 335.755258 74.648669 
L 337.341988 78.051473 
L 338.928717 88.774119 
L 340.515447 106.934935 
L 342.102177 103.459614 
L 343.688907 101.798512 
L 345.275637 98.117757 
L 346.862367 78.245826 
L 348.449097 91.189083 
L 350.035826 91.228309 
L 351.622556 95.523235 
L 353.209286 96.958512 
L 354.796016 102.725356 
L 356.382746 95.568675 
L 357.969476 96.782184 
L 359.556206 102.514663 
L 361.142935 107.487826 
L 362.729665 104.525741 
L 364.316395 117.766886 
L 365.903125 114.377601 
L 365.903125 114.377601 
" style="fill:none;stroke:#348abd;stroke-linecap:square;"/>
   </g>
   <g id="patch_3">
    <path d="M 31.103125 230.4 
L 365.903125 230.4 
" style="fill:none;stroke:#ffffff;stroke-linecap:square;stroke-linejoin:miter;"/>
   </g>
   <g id="patch_4">
    <path d="M 365.903125 230.4 
L 365.903125 7.2 
" style="fill:none;stroke:#ffffff;stroke-linecap:square;stroke-linejoin:miter;"/>
   </g>
   <g id="patch_5">
    <path d="M 31.103125 230.4 
L 31.103125 7.2 
" style="fill:none;stroke:#ffffff;stroke-linecap:square;stroke-linejoin:miter;"/>
   </g>
   <g id="patch_6">
    <path d="M 31.103125 7.2 
L 365.903125 7.2 
" style="fill:none;stroke:#ffffff;stroke-linecap:square;stroke-linejoin:miter;"/>
   </g>
   <g id="legend_1">
    <g id="patch_7">
     <path d="M 37.103125 224.4 
L 222.154375 224.4 
L 222.154375 184.905 
L 37.103125 184.905 
z
" style="fill:#e5e5e5;stroke:#ffffff;stroke-linejoin:miter;stroke-width:0.5;"/>
    </g>
    <g id="line2d_79">
     <path d="M 45.503125 194.623125 
L 62.303125 194.623125 
" style="fill:none;stroke:#e24a33;stroke-linecap:square;"/>
    </g>
    <g id="line2d_80"/>
    <g id="text_14">
     <!-- index_returns_cumprod -->
     <defs>
      <path d="M 48.78125 52.59375 
L 48.78125 44.1875 
Q 44.96875 46.296875 41.140625 47.34375 
Q 37.3125 48.390625 33.40625 48.390625 
Q 24.65625 48.390625 19.8125 42.84375 
Q 14.984375 37.3125 14.984375 27.296875 
Q 14.984375 17.28125 19.8125 11.734375 
Q 24.65625 6.203125 33.40625 6.203125 
Q 37.3125 6.203125 41.140625 7.25 
Q 44.96875 8.296875 48.78125 10.40625 
L 48.78125 2.09375 
Q 45.015625 0.34375 40.984375 -0.53125 
Q 36.96875 -1.421875 32.421875 -1.421875 
Q 20.0625 -1.421875 12.78125 6.34375 
Q 5.515625 14.109375 5.515625 27.296875 
Q 5.515625 40.671875 12.859375 48.328125 
Q 20.21875 56 33.015625 56 
Q 37.15625 56 41.109375 55.140625 
Q 45.0625 54.296875 48.78125 52.59375 
" id="BitstreamVeraSans-Roman-63"/>
      <path d="M 18.3125 70.21875 
L 18.3125 54.6875 
L 36.8125 54.6875 
L 36.8125 47.703125 
L 18.3125 47.703125 
L 18.3125 18.015625 
Q 18.3125 11.328125 20.140625 9.421875 
Q 21.96875 7.515625 27.59375 7.515625 
L 36.8125 7.515625 
L 36.8125 0 
L 27.59375 0 
Q 17.1875 0 13.234375 3.875 
Q 9.28125 7.765625 9.28125 18.015625 
L 9.28125 47.703125 
L 2.6875 47.703125 
L 2.6875 54.6875 
L 9.28125 54.6875 
L 9.28125 70.21875 
z
" id="BitstreamVeraSans-Roman-74"/>
      <path d="M 18.109375 8.203125 
L 18.109375 -20.796875 
L 9.078125 -20.796875 
L 9.078125 54.6875 
L 18.109375 54.6875 
L 18.109375 46.390625 
Q 20.953125 51.265625 25.265625 53.625 
Q 29.59375 56 35.59375 56 
Q 45.5625 56 51.78125 48.09375 
Q 58.015625 40.1875 58.015625 27.296875 
Q 58.015625 14.40625 51.78125 6.484375 
Q 45.5625 -1.421875 35.59375 -1.421875 
Q 29.59375 -1.421875 25.265625 0.953125 
Q 20.953125 3.328125 18.109375 8.203125 
M 48.6875 27.296875 
Q 48.6875 37.203125 44.609375 42.84375 
Q 40.53125 48.484375 33.40625 48.484375 
Q 26.265625 48.484375 22.1875 42.84375 
Q 18.109375 37.203125 18.109375 27.296875 
Q 18.109375 17.390625 22.1875 11.75 
Q 26.265625 6.109375 33.40625 6.109375 
Q 40.53125 6.109375 44.609375 11.75 
Q 48.6875 17.390625 48.6875 27.296875 
" id="BitstreamVeraSans-Roman-70"/>
      <path d="M 52 44.1875 
Q 55.375 50.25 60.0625 53.125 
Q 64.75 56 71.09375 56 
Q 79.640625 56 84.28125 50.015625 
Q 88.921875 44.046875 88.921875 33.015625 
L 88.921875 0 
L 79.890625 0 
L 79.890625 32.71875 
Q 79.890625 40.578125 77.09375 44.375 
Q 74.3125 48.1875 68.609375 48.1875 
Q 61.625 48.1875 57.5625 43.546875 
Q 53.515625 38.921875 53.515625 30.90625 
L 53.515625 0 
L 44.484375 0 
L 44.484375 32.71875 
Q 44.484375 40.625 41.703125 44.40625 
Q 38.921875 48.1875 33.109375 48.1875 
Q 26.21875 48.1875 22.15625 43.53125 
Q 18.109375 38.875 18.109375 30.90625 
L 18.109375 0 
L 9.078125 0 
L 9.078125 54.6875 
L 18.109375 54.6875 
L 18.109375 46.1875 
Q 21.1875 51.21875 25.484375 53.609375 
Q 29.78125 56 35.6875 56 
Q 41.65625 56 45.828125 52.96875 
Q 50 49.953125 52 44.1875 
" id="BitstreamVeraSans-Roman-6d"/>
      <path d="M 54.890625 33.015625 
L 54.890625 0 
L 45.90625 0 
L 45.90625 32.71875 
Q 45.90625 40.484375 42.875 44.328125 
Q 39.84375 48.1875 33.796875 48.1875 
Q 26.515625 48.1875 22.3125 43.546875 
Q 18.109375 38.921875 18.109375 30.90625 
L 18.109375 0 
L 9.078125 0 
L 9.078125 54.6875 
L 18.109375 54.6875 
L 18.109375 46.1875 
Q 21.34375 51.125 25.703125 53.5625 
Q 30.078125 56 35.796875 56 
Q 45.21875 56 50.046875 50.171875 
Q 54.890625 44.34375 54.890625 33.015625 
" id="BitstreamVeraSans-Roman-6e"/>
      <path d="M 41.109375 46.296875 
Q 39.59375 47.171875 37.8125 47.578125 
Q 36.03125 48 33.890625 48 
Q 26.265625 48 22.1875 43.046875 
Q 18.109375 38.09375 18.109375 28.8125 
L 18.109375 0 
L 9.078125 0 
L 9.078125 54.6875 
L 18.109375 54.6875 
L 18.109375 46.1875 
Q 20.953125 51.171875 25.484375 53.578125 
Q 30.03125 56 36.53125 56 
Q 37.453125 56 38.578125 55.875 
Q 39.703125 55.765625 41.0625 55.515625 
z
" id="BitstreamVeraSans-Roman-72"/>
      <path d="M 56.203125 29.59375 
L 56.203125 25.203125 
L 14.890625 25.203125 
Q 15.484375 15.921875 20.484375 11.0625 
Q 25.484375 6.203125 34.421875 6.203125 
Q 39.59375 6.203125 44.453125 7.46875 
Q 49.3125 8.734375 54.109375 11.28125 
L 54.109375 2.78125 
Q 49.265625 0.734375 44.1875 -0.34375 
Q 39.109375 -1.421875 33.890625 -1.421875 
Q 20.796875 -1.421875 13.15625 6.1875 
Q 5.515625 13.8125 5.515625 26.8125 
Q 5.515625 40.234375 12.765625 48.109375 
Q 20.015625 56 32.328125 56 
Q 43.359375 56 49.78125 48.890625 
Q 56.203125 41.796875 56.203125 29.59375 
M 47.21875 32.234375 
Q 47.125 39.59375 43.09375 43.984375 
Q 39.0625 48.390625 32.421875 48.390625 
Q 24.90625 48.390625 20.390625 44.140625 
Q 15.875 39.890625 15.1875 32.171875 
z
" id="BitstreamVeraSans-Roman-65"/>
      <path d="M 8.5 21.578125 
L 8.5 54.6875 
L 17.484375 54.6875 
L 17.484375 21.921875 
Q 17.484375 14.15625 20.5 10.265625 
Q 23.53125 6.390625 29.59375 6.390625 
Q 36.859375 6.390625 41.078125 11.03125 
Q 45.3125 15.671875 45.3125 23.6875 
L 45.3125 54.6875 
L 54.296875 54.6875 
L 54.296875 0 
L 45.3125 0 
L 45.3125 8.40625 
Q 42.046875 3.421875 37.71875 1 
Q 33.40625 -1.421875 27.6875 -1.421875 
Q 18.265625 -1.421875 13.375 4.4375 
Q 8.5 10.296875 8.5 21.578125 
" id="BitstreamVeraSans-Roman-75"/>
      <path d="M 54.890625 54.6875 
L 35.109375 28.078125 
L 55.90625 0 
L 45.3125 0 
L 29.390625 21.484375 
L 13.484375 0 
L 2.875 0 
L 24.125 28.609375 
L 4.6875 54.6875 
L 15.28125 54.6875 
L 29.78125 35.203125 
L 44.28125 54.6875 
z
" id="BitstreamVeraSans-Roman-78"/>
      <path d="M 44.28125 53.078125 
L 44.28125 44.578125 
Q 40.484375 46.53125 36.375 47.5 
Q 32.28125 48.484375 27.875 48.484375 
Q 21.1875 48.484375 17.84375 46.4375 
Q 14.5 44.390625 14.5 40.28125 
Q 14.5 37.15625 16.890625 35.375 
Q 19.28125 33.59375 26.515625 31.984375 
L 29.59375 31.296875 
Q 39.15625 29.25 43.1875 25.515625 
Q 47.21875 21.78125 47.21875 15.09375 
Q 47.21875 7.46875 41.1875 3.015625 
Q 35.15625 -1.421875 24.609375 -1.421875 
Q 20.21875 -1.421875 15.453125 -0.5625 
Q 10.6875 0.296875 5.421875 2 
L 5.421875 11.28125 
Q 10.40625 8.6875 15.234375 7.390625 
Q 20.0625 6.109375 24.8125 6.109375 
Q 31.15625 6.109375 34.5625 8.28125 
Q 37.984375 10.453125 37.984375 14.40625 
Q 37.984375 18.0625 35.515625 20.015625 
Q 33.0625 21.96875 24.703125 23.78125 
L 21.578125 24.515625 
Q 13.234375 26.265625 9.515625 29.90625 
Q 5.8125 33.546875 5.8125 39.890625 
Q 5.8125 47.609375 11.28125 51.796875 
Q 16.75 56 26.8125 56 
Q 31.78125 56 36.171875 55.265625 
Q 40.578125 54.546875 44.28125 53.078125 
" id="BitstreamVeraSans-Roman-73"/>
      <path d="M 30.609375 48.390625 
Q 23.390625 48.390625 19.1875 42.75 
Q 14.984375 37.109375 14.984375 27.296875 
Q 14.984375 17.484375 19.15625 11.84375 
Q 23.34375 6.203125 30.609375 6.203125 
Q 37.796875 6.203125 41.984375 11.859375 
Q 46.1875 17.53125 46.1875 27.296875 
Q 46.1875 37.015625 41.984375 42.703125 
Q 37.796875 48.390625 30.609375 48.390625 
M 30.609375 56 
Q 42.328125 56 49.015625 48.375 
Q 55.71875 40.765625 55.71875 27.296875 
Q 55.71875 13.875 49.015625 6.21875 
Q 42.328125 -1.421875 30.609375 -1.421875 
Q 18.84375 -1.421875 12.171875 6.21875 
Q 5.515625 13.875 5.515625 27.296875 
Q 5.515625 40.765625 12.171875 48.375 
Q 18.84375 56 30.609375 56 
" id="BitstreamVeraSans-Roman-6f"/>
      <path d="M 9.421875 54.6875 
L 18.40625 54.6875 
L 18.40625 0 
L 9.421875 0 
z
M 9.421875 75.984375 
L 18.40625 75.984375 
L 18.40625 64.59375 
L 9.421875 64.59375 
z
" id="BitstreamVeraSans-Roman-69"/>
      <path d="M 50.984375 -16.609375 
L 50.984375 -23.578125 
L -0.984375 -23.578125 
L -0.984375 -16.609375 
z
" id="BitstreamVeraSans-Roman-5f"/>
      <path d="M 45.40625 46.390625 
L 45.40625 75.984375 
L 54.390625 75.984375 
L 54.390625 0 
L 45.40625 0 
L 45.40625 8.203125 
Q 42.578125 3.328125 38.25 0.953125 
Q 33.9375 -1.421875 27.875 -1.421875 
Q 17.96875 -1.421875 11.734375 6.484375 
Q 5.515625 14.40625 5.515625 27.296875 
Q 5.515625 40.1875 11.734375 48.09375 
Q 17.96875 56 27.875 56 
Q 33.9375 56 38.25 53.625 
Q 42.578125 51.265625 45.40625 46.390625 
M 14.796875 27.296875 
Q 14.796875 17.390625 18.875 11.75 
Q 22.953125 6.109375 30.078125 6.109375 
Q 37.203125 6.109375 41.296875 11.75 
Q 45.40625 17.390625 45.40625 27.296875 
Q 45.40625 37.203125 41.296875 42.84375 
Q 37.203125 48.484375 30.078125 48.484375 
Q 22.953125 48.484375 18.875 42.84375 
Q 14.796875 37.203125 14.796875 27.296875 
" id="BitstreamVeraSans-Roman-64"/>
     </defs>
     <g transform="translate(75.503125 198.823125)scale(0.12 -0.12)">
      <use xlink:href="#BitstreamVeraSans-Roman-69"/>
      <use x="27.783203125" xlink:href="#BitstreamVeraSans-Roman-6e"/>
      <use x="91.162109375" xlink:href="#BitstreamVeraSans-Roman-64"/>
      <use x="154.638671875" xlink:href="#BitstreamVeraSans-Roman-65"/>
      <use x="216.146484375" xlink:href="#BitstreamVeraSans-Roman-78"/>
      <use x="275.326171875" xlink:href="#BitstreamVeraSans-Roman-5f"/>
      <use x="325.326171875" xlink:href="#BitstreamVeraSans-Roman-72"/>
      <use x="366.408203125" xlink:href="#BitstreamVeraSans-Roman-65"/>
      <use x="427.931640625" xlink:href="#BitstreamVeraSans-Roman-74"/>
      <use x="467.140625" xlink:href="#BitstreamVeraSans-Roman-75"/>
      <use x="530.51953125" xlink:href="#BitstreamVeraSans-Roman-72"/>
      <use x="571.6171875" xlink:href="#BitstreamVeraSans-Roman-6e"/>
      <use x="634.99609375" xlink:href="#BitstreamVeraSans-Roman-73"/>
      <use x="687.095703125" xlink:href="#BitstreamVeraSans-Roman-5f"/>
      <use x="737.095703125" xlink:href="#BitstreamVeraSans-Roman-63"/>
      <use x="792.076171875" xlink:href="#BitstreamVeraSans-Roman-75"/>
      <use x="855.455078125" xlink:href="#BitstreamVeraSans-Roman-6d"/>
      <use x="952.8671875" xlink:href="#BitstreamVeraSans-Roman-70"/>
      <use x="1016.34375" xlink:href="#BitstreamVeraSans-Roman-72"/>
      <use x="1057.42578125" xlink:href="#BitstreamVeraSans-Roman-6f"/>
      <use x="1118.607421875" xlink:href="#BitstreamVeraSans-Roman-64"/>
     </g>
    </g>
    <g id="line2d_81">
     <path d="M 45.503125 212.570625 
L 62.303125 212.570625 
" style="fill:none;stroke:#348abd;stroke-linecap:square;"/>
    </g>
    <g id="line2d_82"/>
    <g id="text_15">
     <!-- returns_cumprod -->
     <g transform="translate(75.503125 216.770625)scale(0.12 -0.12)">
      <use xlink:href="#BitstreamVeraSans-Roman-72"/>
      <use x="41.08203125" xlink:href="#BitstreamVeraSans-Roman-65"/>
      <use x="102.60546875" xlink:href="#BitstreamVeraSans-Roman-74"/>
      <use x="141.814453125" xlink:href="#BitstreamVeraSans-Roman-75"/>
      <use x="205.193359375" xlink:href="#BitstreamVeraSans-Roman-72"/>
      <use x="246.291015625" xlink:href="#BitstreamVeraSans-Roman-6e"/>
      <use x="309.669921875" xlink:href="#BitstreamVeraSans-Roman-73"/>
      <use x="361.76953125" xlink:href="#BitstreamVeraSans-Roman-5f"/>
      <use x="411.76953125" xlink:href="#BitstreamVeraSans-Roman-63"/>
      <use x="466.75" xlink:href="#BitstreamVeraSans-Roman-75"/>
      <use x="530.12890625" xlink:href="#BitstreamVeraSans-Roman-6d"/>
      <use x="627.541015625" xlink:href="#BitstreamVeraSans-Roman-70"/>
      <use x="691.017578125" xlink:href="#BitstreamVeraSans-Roman-72"/>
      <use x="732.099609375" xlink:href="#BitstreamVeraSans-Roman-6f"/>
      <use x="793.28125" xlink:href="#BitstreamVeraSans-Roman-64"/>
     </g>
    </g>
   </g>
  </g>
 </g>
 <defs>
  <clipPath id="pdbcdf50e1c">
   <rect height="223.2" width="334.8" x="31.103125" y="7.2"/>
  </clipPath>
 </defs>
</svg>
